<svg width="372" height="338" viewBox="0 0 372 338" fill="none" xmlns="http://www.w3.org/2000/svg">
<path d="M28.0222 326.081C22.3242 326.081 17.1731 323.092 14.2428 318.085C11.1973 312.882 11.1412 306.638 14.0927 301.382L172.012 20.1766C174.915 15.0066 180.122 11.919 185.941 11.919C191.76 11.919 196.967 15.0065 199.87 20.1754L357.789 301.382C360.741 306.638 360.685 312.882 357.639 318.085C354.709 323.092 349.558 326.081 343.86 326.081H28.0222Z" fill="#FEC23E"/>
<path d="M185.941 7.3348C178.961 7.3348 171.982 10.8676 168.015 17.9309C115.375 111.667 62.7357 205.402 10.0959 299.138C2.21077 313.178 12.1534 330.665 28.0224 330.665H185.941H343.861C359.729 330.665 369.672 313.178 361.787 299.138C309.147 205.402 256.508 111.667 203.868 17.9309C199.901 10.8676 192.921 7.3348 185.941 7.3348ZM185.941 16.5033C187.906 16.5033 189.833 17.0069 191.51 17.9583C193.319 18.9847 194.787 20.4862 195.874 22.4211L274.833 163.024L353.792 303.627C354.901 305.6 355.433 307.705 355.376 309.885C355.321 311.935 354.737 313.97 353.684 315.769C352.676 317.491 349.701 321.497 343.861 321.497H185.941H28.0224C22.1819 321.497 19.2072 317.491 18.1994 315.769C17.1463 313.97 16.5612 311.935 16.5073 309.885C16.45 307.705 16.9825 305.6 18.0901 303.627L97.0501 163.024L176.009 22.4211C177.096 20.4862 178.564 18.9847 180.372 17.9583C182.05 17.0069 183.977 16.5033 185.941 16.5033Z" fill="#A36900"/>
<path d="M197.522 242.185H174.36V108.77H197.522V242.185Z" fill="black"/>
<path d="M197.522 286.193H174.36V263.032H197.522V286.193Z" fill="black"/>
<path d="M185.941 5.12751e-06C181.127 5.12751e-06 176.386 1.24667 172.229 3.60428C167.832 6.09882 164.162 9.81147 161.62 14.3397L82.6601 154.942L3.7004 295.546C1.15109 300.085 -0.125116 305.195 0.00967208 310.32C0.136483 315.144 1.50139 319.912 3.9564 324.107C6.35973 328.212 9.74695 331.657 13.7518 334.068C18.0238 336.64 22.9585 338 28.0222 338H185.941H343.86C348.923 338 353.859 336.64 358.131 334.068C362.136 331.657 365.523 328.212 367.926 324.107C370.381 319.912 371.746 315.144 371.873 310.32C372.008 305.195 370.731 300.085 368.182 295.546L280.683 139.737L210.263 14.3397C207.721 9.81147 204.051 6.09882 199.653 3.60428C195.497 1.24667 190.755 5.12751e-06 185.941 5.12751e-06ZM185.941 7.33479C192.921 7.33479 199.901 10.8676 203.867 17.9309C256.508 111.667 309.146 205.402 361.787 299.138C369.672 313.178 359.729 330.665 343.86 330.665H185.941H28.0222C12.1533 330.665 2.21058 313.178 10.0957 299.138C62.7355 205.402 115.375 111.667 168.015 17.9309C171.981 10.8676 178.961 7.33479 185.941 7.33479Z" fill="white"/>
</svg>
