<svg width="20" height="20" viewBox="0 0 20 20" fill="current" xmlns="http://www.w3.org/2000/svg">
<g clip-path="url(#clip0_57_584)">
<path d="M10.7422 19.9727C12.2227 19.832 13.3242 19.5195 14.5703 18.8867C16.0469 18.1328 17.3711 16.9453 18.3398 15.5078C18.7461 14.8984 19.2461 13.8711 19.4883 13.1445C19.6797 12.5586 19.8359 11.8906 19.9297 11.2305C19.9961 10.7695 19.9961 9.23047 19.9297 8.76954C19.7656 7.61719 19.4609 6.60938 18.9844 5.64454C18.4492 4.55079 17.9219 3.81641 17.0547 2.94532C16.1914 2.08594 15.4453 1.55079 14.3945 1.03516C13.6602 0.675786 13.1875 0.500004 12.4414 0.312504C10.4883 -0.179683 8.52734 -0.0859331 6.62109 0.589848C6.03906 0.796879 5.03125 1.30079 4.51172 1.64844C3.34375 2.42579 2.27344 3.52344 1.50781 4.72657C1.22656 5.16797 0.773438 6.10547 0.589844 6.625C-0.328125 9.21094 -0.167969 11.9844 1.03906 14.4102C1.52344 15.3867 2.06641 16.1563 2.82812 16.9414C3.67187 17.8164 4.5 18.418 5.60547 18.9648C6.76172 19.5352 7.83984 19.8438 9.12109 19.9609C9.51953 19.9961 10.4219 20.0039 10.7422 19.9727ZM7.68359 15.75C7.36719 15.5781 7.18359 15.2695 7.17969 14.9023C7.17578 14.4805 7.10156 14.5664 9.46484 12.1992L11.6602 10L9.46484 7.80469C7.10156 5.4336 7.17578 5.51954 7.17969 5.09766C7.18359 4.73438 7.36719 4.42188 7.67969 4.25C7.94922 4.10547 8.18359 4.07813 8.46484 4.16016C8.69141 4.22657 8.70703 4.23829 11.2812 6.8086C13.1523 8.67969 13.8945 9.44141 13.957 9.57032C14.0742 9.8125 14.0742 10.1875 13.957 10.4297C13.8945 10.5586 13.1523 11.3203 11.2812 13.1914C8.88672 15.582 8.67578 15.7813 8.49609 15.8359C8.23437 15.918 7.93359 15.8867 7.68359 15.75Z" fill="current"/>
</g>
<defs>
<clipPath id="clip0_57_584">
<rect width="20" height="20" fill="white" transform="matrix(-1 0 0 -1 20 20)"/>
</clipPath>
</defs>
</svg>
