<svg width="20" height="20" viewBox="0 0 20 20" fill="current" xmlns="http://www.w3.org/2000/svg">
<g clip-path="url(#clip0_57_580)">
<path d="M9.25781 0.0273399C7.77734 0.167965 6.67578 0.480465 5.42969 1.11328C3.95312 1.86718 2.62891 3.05468 1.66016 4.49218C1.25391 5.10156 0.753906 6.1289 0.511719 6.85546C0.320312 7.4414 0.164062 8.10937 0.0703125 8.76953C0.00390625 9.23046 0.00390625 10.7695 0.0703125 11.2305C0.234375 12.3828 0.539062 13.3906 1.01562 14.3555C1.55078 15.4492 2.07812 16.1836 2.94531 17.0547C3.80859 17.9141 4.55469 18.4492 5.60547 18.9648C6.33984 19.3242 6.8125 19.5 7.55859 19.6875C9.51172 20.1797 11.4727 20.0859 13.3789 19.4102C13.9609 19.2031 14.9688 18.6992 15.4883 18.3516C16.6562 17.5742 17.7266 16.4766 18.4922 15.2734C18.7734 14.832 19.2266 13.8945 19.4102 13.375C20.3281 10.7891 20.168 8.01562 18.9609 5.58984C18.4766 4.61328 17.9336 3.84375 17.1719 3.05859C16.3281 2.18359 15.5 1.58203 14.3945 1.03515C13.2383 0.46484 12.1602 0.156246 10.8789 0.0390587C10.4805 0.00390244 9.57812 -0.00391006 9.25781 0.0273399ZM12.3164 4.25C12.6328 4.42187 12.8164 4.73046 12.8203 5.09765C12.8242 5.51953 12.8984 5.43359 10.5352 7.80078L8.33984 10L10.5352 12.1953C12.8984 14.5664 12.8242 14.4805 12.8203 14.9023C12.8164 15.2656 12.6328 15.5781 12.3203 15.75C12.0508 15.8945 11.8164 15.9219 11.5352 15.8398C11.3086 15.7734 11.293 15.7617 8.71875 13.1914C6.84766 11.3203 6.10547 10.5586 6.04297 10.4297C5.92578 10.1875 5.92578 9.8125 6.04297 9.57031C6.10547 9.4414 6.84766 8.67968 8.71875 6.80859C11.1133 4.41796 11.3242 4.21875 11.5039 4.16406C11.7656 4.08203 12.0664 4.11328 12.3164 4.25Z" fill="current"/>
</g>
<defs>
<clipPath id="clip0_57_580">
<rect width="20" height="20" fill="white"/>
</clipPath>
</defs>
</svg>
