<svg width="24" height="24" viewBox="0 0 24 24" fill="none" xmlns="http://www.w3.org/2000/svg">
<g clip-path="url(#clip0_48_486)">
<path d="M13.8047 0.0515614C12.0281 0.220312 10.3734 0.824999 8.94373 1.82812C8.27811 2.29219 7.31717 3.27656 6.87186 3.95156C6.09842 5.11406 5.67654 6.45469 5.67186 7.74844V8.10937L5.47029 8.18906C5.10467 8.32969 4.22342 8.80781 3.78748 9.09844C1.84686 10.3875 0.581232 12.1781 0.131232 14.2687C-0.00470521 14.9062 -0.0140802 16.2516 0.112482 16.9219C0.356232 18.1828 1.00311 19.5516 1.80467 20.4797L2.02029 20.7328L1.88436 20.8781C1.39686 21.3984 0.0796698 22.95 0.0468573 23.0437C-0.0750177 23.3625 0.0749823 23.7516 0.374982 23.9062C0.557795 24 0.64217 24 5.59217 24C10.3547 24 10.6687 23.9953 11.325 23.9062C13.8187 23.5734 15.8906 22.5703 17.489 20.925C18.4734 19.9125 19.1297 18.7781 19.4812 17.5031C19.6125 17.0203 19.7344 16.2 19.7344 15.7828V15.5156H21.6C23.325 15.5156 23.475 15.5109 23.625 15.4266C23.9437 15.2578 24.0844 14.8312 23.925 14.5219C23.8828 14.4375 23.4703 13.9359 23.0062 13.3969L22.1672 12.4172L22.35 12.2109C23.0297 11.4375 23.625 10.2094 23.8687 9.07969C24.0047 8.44219 24.014 7.21406 23.8922 6.59062C23.5406 4.85156 22.6031 3.3375 21.1406 2.16094C19.1765 0.581249 16.439 -0.206251 13.8047 0.0515614ZM15.75 1.45781C17.7797 1.66406 19.5656 2.47969 20.8594 3.79219C22.6125 5.56875 23.0672 7.95 22.0547 10.0641C21.7922 10.6125 21.4828 11.0719 21.014 11.6016C20.5734 12.0984 20.5312 12.1687 20.5312 12.4125C20.5312 12.6375 20.625 12.7828 21.2015 13.4531C21.4359 13.725 21.6562 13.9828 21.6937 14.025C21.7594 14.1047 21.7078 14.1094 20.6672 14.1094H19.5656L19.4812 13.7672C18.825 11.1844 16.5328 8.92031 13.5422 7.90312C12.389 7.51406 11.2969 7.34062 9.91404 7.34062C8.86873 7.33594 8.46092 7.37344 7.57498 7.55156C7.32186 7.60312 7.10154 7.63125 7.08748 7.61719C7.03592 7.57031 7.21404 6.53437 7.33592 6.16406C7.64061 5.24062 8.09998 4.50469 8.85936 3.75C9.89998 2.70469 11.1984 2.00156 12.75 1.64531C13.0922 1.56562 13.4625 1.50469 14.039 1.43906C14.3578 1.40156 15.3047 1.41094 15.75 1.45781ZM10.8562 8.77031C12.6609 8.94375 14.3812 9.60469 15.689 10.6219C18.2109 12.5906 19.0078 15.6281 17.6906 18.2531C16.5234 20.5734 14.0297 22.1719 11.025 22.5234C10.5422 22.5797 9.65623 22.5938 6.33748 22.5938H2.24529L2.90154 21.8484C3.26248 21.4359 3.58123 21.0562 3.60936 20.9953C3.64217 20.9391 3.65623 20.7891 3.64686 20.6484C3.62811 20.4187 3.60467 20.3812 3.16873 19.8937C2.26873 18.8906 1.76717 17.9437 1.51873 16.7812C1.40154 16.2281 1.39686 15.0797 1.51404 14.5312C1.89373 12.7547 3.04686 11.1984 4.78123 10.1203C6.48279 9.06094 8.73279 8.56406 10.8562 8.77031Z" fill="#B3B3B3"/>
<path d="M5.21714 14.1937C4.04058 14.6156 3.94214 16.2187 5.05308 16.7672C5.43276 16.9547 5.91089 16.9547 6.29058 16.7672C6.79214 16.5187 7.05464 16.0922 7.05464 15.5156C7.05464 15.1172 6.9562 14.85 6.70776 14.5641C6.37027 14.1844 5.70933 14.0156 5.21714 14.1937Z" fill="#B3B3B3"/>
<path d="M9.43589 14.1937C8.25933 14.6156 8.16089 16.2187 9.27183 16.7672C9.65151 16.9547 10.1296 16.9547 10.5093 16.7672C11.0109 16.5187 11.2734 16.0922 11.2734 15.5156C11.2734 15.1172 11.175 14.85 10.9265 14.5641C10.589 14.1844 9.92808 14.0156 9.43589 14.1937Z" fill="#B3B3B3"/>
<path d="M13.6546 14.1937C12.4781 14.6156 12.3796 16.2187 13.4906 16.7672C13.8703 16.9547 14.3484 16.9547 14.7281 16.7672C15.2296 16.5187 15.4921 16.0922 15.4921 15.5156C15.4921 15.1172 15.3937 14.85 15.1453 14.5641C14.8078 14.1844 14.1468 14.0156 13.6546 14.1937Z" fill="#B3B3B3"/>
</g>
<defs>
<clipPath id="clip0_48_486">
<rect width="24" height="24" fill="white"/>
</clipPath>
</defs>
</svg>
