<svg width="24" height="24" viewBox="0 0 24 24" fill="none" xmlns="http://www.w3.org/2000/svg">
<g clip-path="url(#clip0_13_760)">
<path d="M13.7812 0.0515623C10.0734 0.43125 6.9234 2.71406 5.96247 5.71875C5.88278 5.9625 5.80309 6.24844 5.78434 6.34687C5.75622 6.51094 5.7609 6.52969 5.84059 6.50625C6.60465 6.28125 7.2234 6.13125 7.69684 6.05156C10.4156 5.60156 13.0781 5.97656 15.4453 7.14375C16.6547 7.73906 17.4609 8.30625 18.3609 9.19219C20.0578 10.8562 20.9765 12.7875 21.164 15.0797L21.1968 15.4688H22.3312C23.6156 15.4688 23.7 15.45 23.8922 15.1125C24.0187 14.8969 24.0281 14.6766 23.925 14.475C23.8828 14.3906 23.4703 13.8891 23.0062 13.35L22.1672 12.3703L22.35 12.1641C23.0297 11.3906 23.625 10.1672 23.8687 9.03281C24.014 8.34844 24.014 7.12031 23.8687 6.43594C23.1281 2.99062 19.889 0.421874 15.8203 0.046874C15.2203 -0.00937557 14.3531 -0.00468826 13.7812 0.0515623Z" fill="white"/>
<path d="M8.99998 7.29844C7.16248 7.43906 5.19842 8.10469 3.77342 9.06094C2.76092 9.74063 1.82342 10.6781 1.20936 11.625C-0.0281427 13.5234 -0.318768 15.7078 0.374982 17.8828C0.651545 18.7547 1.24217 19.8281 1.79998 20.4797L2.01561 20.7281L1.86561 20.9016C0.520295 22.4297 0.0796698 22.9453 0.0468573 23.0438C-0.0750177 23.3625 0.0749823 23.7516 0.374982 23.9063C0.557795 24 0.637482 24 5.78436 24C11.3719 24 11.564 23.9953 12.4922 23.7609C16.064 22.8703 18.9469 20.1703 19.6125 17.0859C19.964 15.4781 19.7625 13.9313 19.0031 12.3984C18.5906 11.5547 18.1922 11.0156 17.414 10.2422C16.7156 9.54375 16.1906 9.14063 15.375 8.67656C13.5281 7.62656 11.2078 7.125 8.99998 7.29844ZM6.25311 14.2219C6.7453 14.4609 7.00779 14.8969 7.00779 15.4688C7.00779 15.8672 6.90936 16.1344 6.66092 16.4203C6.27655 16.8516 5.54998 16.9875 5.00623 16.7203C4.25623 16.35 3.99842 15.4172 4.45311 14.7047C4.82811 14.1141 5.60623 13.9078 6.25311 14.2219ZM10.5187 14.2219C11.0109 14.4609 11.2734 14.8969 11.2734 15.4688C11.2734 15.8672 11.175 16.1344 10.9265 16.4203C10.5422 16.8516 9.81561 16.9875 9.27186 16.7203C8.52186 16.35 8.26404 15.4172 8.71873 14.7047C9.09373 14.1141 9.87186 13.9078 10.5187 14.2219ZM14.7844 14.2219C15.2765 14.4609 15.539 14.8969 15.539 15.4688C15.539 15.8672 15.4406 16.1344 15.1922 16.4203C14.8078 16.8516 14.0812 16.9875 13.5375 16.7203C12.7875 16.35 12.5297 15.4172 12.9844 14.7047C13.3594 14.1141 14.1375 13.9078 14.7844 14.2219Z" fill="white"/>
</g>
<defs>
<clipPath id="clip0_13_760">
<rect width="24" height="24" fill="white"/>
</clipPath>
</defs>
</svg>
