<svg width="24" height="24" viewBox="0 0 24 24" fill="none" xmlns="http://www.w3.org/2000/svg">
<g clip-path="url(#clip0_48_811)">
<path d="M2.81719 2.04375C2.07656 2.24062 1.48594 2.84062 1.28906 3.58593C1.22813 3.825 1.21875 4.51406 1.21875 8.775C1.21875 12.1875 1.23281 13.7578 1.27031 13.9312C1.44844 14.7891 2.19375 15.4828 3.07031 15.6094C3.51094 15.6703 20.4281 15.6703 20.8828 15.6094C21.5906 15.5109 22.2094 15.0516 22.5375 14.3953L22.7109 14.0437L22.725 8.93437C22.7391 3.21562 22.7578 3.49687 22.4109 2.9625C22.0969 2.47968 21.6 2.1375 21.0563 2.02031C20.8781 1.98281 18.3422 1.96875 11.9391 1.97343C4.34531 1.97343 3.03281 1.98281 2.81719 2.04375ZM17.3297 4.72031C17.3953 4.79531 17.5547 5.02031 17.6813 5.22656C18.1172 5.91562 18.7828 6.4875 19.5891 6.85312C20.1938 7.12968 20.1891 7.125 20.2453 7.25156C20.2781 7.32656 20.2969 7.86093 20.2969 8.85468C20.2969 10.5937 20.3578 10.425 19.6594 10.7203C19.425 10.8234 19.0875 11.0016 18.9094 11.1234C18.4688 11.4141 17.9297 11.9625 17.6719 12.3797C17.5547 12.5672 17.4094 12.7734 17.3438 12.8437L17.2266 12.9703L15.8016 12.9984C15.0188 13.0172 12.6984 13.0312 10.6453 13.0312C6.33281 13.0312 6.71719 13.0781 6.39375 12.5391C5.86875 11.6625 5.19375 11.0906 4.2 10.6594C3.89531 10.5328 3.77344 10.4531 3.72656 10.3547C3.67031 10.2469 3.65625 9.95156 3.65625 8.77031V7.32187L3.77344 7.17656C3.83906 7.10156 3.97031 7.0125 4.06875 6.97968C4.35 6.89062 4.87969 6.61406 5.18438 6.39843C5.56875 6.12187 6.17344 5.475 6.39375 5.09062C6.71719 4.53281 6.04219 4.59375 12.0094 4.59375H17.2078L17.3297 4.72031Z" fill="white"/>
<path d="M11.3485 5.60625C10.8516 5.7375 10.5 5.95312 10.0781 6.375C9.6422 6.81093 9.4172 7.18125 9.23439 7.75781C9.08908 8.22656 9.05627 9.05156 9.16408 9.54375C9.73127 12.1219 12.5063 12.9516 14.1188 11.025C14.3344 10.7672 14.6297 10.2047 14.7375 9.84843C15.2063 8.26406 14.5078 6.47812 13.1672 5.82187C12.9516 5.71875 12.661 5.61093 12.525 5.58281C12.1875 5.5125 11.6531 5.52187 11.3485 5.60625ZM12.4969 6.15937C13.3219 6.37968 13.9922 7.11562 14.2313 8.0625C14.3344 8.46093 14.3297 9.13593 14.2313 9.54843C14.1094 10.0312 14.1235 10.0266 13.7485 9.85312C12.6656 9.35625 11.1656 9.36562 10.1578 9.87187C10.036 9.9375 9.91408 9.975 9.89064 9.96093C9.80158 9.90468 9.69377 9.43125 9.67033 8.97187C9.59533 7.66875 10.2985 6.52968 11.3813 6.18281C11.7 6.07968 12.1688 6.07031 12.4969 6.15937Z" fill="white"/>
<path d="M11.6015 6.72188C10.814 7.06407 10.7437 8.1375 11.4797 8.56875C11.9765 8.85938 12.6422 8.65313 12.9 8.13282C13.1531 7.62188 12.9234 6.97969 12.4031 6.74532C12.1781 6.64219 11.8031 6.63282 11.6015 6.72188Z" fill="white"/>
<path d="M5.39063 7.69219C4.80938 7.95469 4.52813 8.55 4.70156 9.14532C4.96875 10.05 6.15938 10.3125 6.77344 9.6C7.21875 9.07969 7.1625 8.34844 6.6375 7.88907C6.29063 7.58438 5.79844 7.50469 5.39063 7.69219Z" fill="white"/>
<path d="M17.625 7.69218C17.0906 7.93125 16.8094 8.475 16.9219 9.02343C17.0719 9.74062 17.7562 10.1625 18.4453 9.96093C19.1672 9.75468 19.5281 8.91093 19.1812 8.24531C18.8859 7.67812 18.1922 7.43437 17.625 7.69218Z" fill="white"/>
<path d="M8.0953 16.0734C7.56561 16.2891 7.20468 16.7859 7.14374 17.3766C7.11093 17.6672 7.11093 17.6719 6.96561 17.6719C6.88593 17.6719 6.33749 17.7047 5.75155 17.7422C4.59374 17.8172 4.38749 17.8641 4.11093 18.1312C3.77343 18.45 3.66093 19.0125 3.84374 19.4437C3.96093 19.7109 4.2328 19.9875 4.49061 20.0953C4.6078 20.1422 5.04843 20.1891 5.89218 20.2406L7.12499 20.3156V20.4797C7.12499 20.9531 7.42499 21.5062 7.81874 21.7547C8.0953 21.9281 8.29218 21.9844 8.65311 21.9844C9.04686 21.9844 9.3328 21.8719 9.62343 21.6094C10.0266 21.2391 11.1703 19.9359 11.3203 19.6734C11.4516 19.4484 11.4609 19.3922 11.4609 18.9844C11.4609 18.5766 11.4516 18.5203 11.3203 18.2953C11.2453 18.1594 10.95 17.7937 10.6641 17.475C9.42655 16.0969 9.3328 16.0266 8.6953 15.9984C8.40468 15.9891 8.26874 16.0031 8.0953 16.0734Z" fill="white"/>
<path d="M16.7953 16.0828C16.2984 16.275 15.9234 16.8 15.8625 17.3813C15.8297 17.6672 15.8297 17.6719 15.6844 17.6719C15.6047 17.6719 15.0563 17.7047 14.461 17.7422C13.4485 17.8078 13.3688 17.8219 13.125 17.9391C12.3797 18.3141 12.2485 19.3219 12.8719 19.875C13.1719 20.1375 13.2844 20.1609 14.6063 20.2406L15.8344 20.3109L15.8625 20.5969C15.9188 21.1453 16.2422 21.6141 16.7344 21.8672C16.9735 21.9891 17.55 22.0172 17.8453 21.9188C18.1594 21.8156 18.3516 21.6422 19.2094 20.6953C20.0766 19.7391 20.2031 19.5234 20.2031 18.9844C20.2031 18.4875 20.0719 18.2391 19.4297 17.5219C18.1641 16.1109 18.0516 16.0266 17.4141 15.9984C17.1188 15.9891 16.9875 16.0031 16.7953 16.0828Z" fill="white"/>
</g>
<defs>
<clipPath id="clip0_48_811">
<rect width="24" height="24" fill="white"/>
</clipPath>
</defs>
</svg>
