<svg width="24" height="24" viewBox="0 0 24 24" fill="none" xmlns="http://www.w3.org/2000/svg">
<path d="M2.81719 2.04375C2.07656 2.24062 1.48594 2.84062 1.28906 3.58593C1.22813 3.825 1.21875 4.51406 1.21875 8.775C1.21875 12.1875 1.23281 13.7578 1.27031 13.9312C1.44844 14.7891 2.19375 15.4828 3.07031 15.6094C3.51094 15.6703 20.4281 15.6703 20.8828 15.6094C21.5906 15.5109 22.2094 15.0516 22.5375 14.3953L22.7109 14.0437L22.725 8.93437C22.7391 3.21562 22.7578 3.49687 22.4109 2.9625C22.0969 2.47968 21.6 2.1375 21.0563 2.02031C20.8781 1.98281 18.3422 1.96875 11.9391 1.97343C4.34531 1.97343 3.03281 1.98281 2.81719 2.04375ZM21.2578 2.67187C21.6047 2.84062 21.9516 3.20625 22.0734 3.53437L22.1719 3.80625L22.1625 8.87343L22.1484 13.9453L22.0219 14.1797C21.7688 14.6625 21.3563 14.9625 20.8313 15.0469C20.4234 15.1125 3.47344 15.1078 3.11719 15.0422C2.59219 14.9437 2.16094 14.625 1.93594 14.1609L1.80469 13.8984L1.79063 8.91093C1.77656 3.39843 1.76719 3.66093 2.07656 3.20625C2.25938 2.94375 2.59219 2.7 2.90156 2.60625C3.08438 2.54531 4.41094 2.54062 12.0703 2.54531L21.0234 2.55468L21.2578 2.67187Z" fill="#B3B3B3"/>
<path d="M6.61873 4.09219C6.3656 4.18594 6.15466 4.39219 5.94841 4.74844C5.70466 5.16562 5.00623 5.87344 4.61716 6.10312C4.46248 6.19219 4.16716 6.33281 3.96091 6.41719C3.74529 6.50625 3.51091 6.64219 3.41248 6.74062C3.09373 7.04531 3.08904 7.09687 3.1031 8.85938L3.11716 10.4297L3.24841 10.65C3.38904 10.8891 3.59998 11.0391 4.0406 11.2031C4.70154 11.4469 5.47029 12.1031 5.88279 12.7734C6.16404 13.2422 6.25779 13.3406 6.49216 13.4672L6.67966 13.5703L11.9297 13.5656C15.9797 13.5609 17.2219 13.5469 17.3578 13.5047C17.6062 13.4203 17.789 13.2516 17.9812 12.9234C18.4547 12.1125 19.1672 11.5031 20.025 11.175C20.4 11.0344 20.639 10.8469 20.7703 10.5891C20.8547 10.4203 20.8594 10.3031 20.8594 8.82656C20.8594 7.39687 20.85 7.22344 20.7703 7.05469C20.6812 6.85781 20.339 6.51562 20.2359 6.51562C20.1984 6.51562 19.9828 6.42187 19.7531 6.30937C18.989 5.93906 18.4547 5.44687 18.0328 4.73906C17.7984 4.34531 17.6203 4.17656 17.3484 4.08281C17.1187 4.00781 6.83435 4.01719 6.61873 4.09219ZM17.3297 4.72031C17.3953 4.79531 17.5547 5.02031 17.6812 5.22656C18.1172 5.91562 18.7828 6.4875 19.589 6.85312C20.1937 7.12969 20.189 7.125 20.2453 7.25156C20.2781 7.32656 20.2969 7.86094 20.2969 8.85469C20.2969 10.5938 20.3578 10.425 19.6594 10.7203C19.425 10.8234 19.0875 11.0016 18.9094 11.1234C18.4687 11.4141 17.9297 11.9625 17.6719 12.3797C17.5547 12.5672 17.4094 12.7734 17.3437 12.8438L17.2265 12.9703L15.8015 12.9984C15.0187 13.0172 12.6984 13.0312 10.6453 13.0312C6.33279 13.0312 6.71716 13.0781 6.39373 12.5391C5.86873 11.6625 5.19373 11.0906 4.19998 10.6594C3.89529 10.5328 3.77341 10.4531 3.72654 10.3547C3.67029 10.2469 3.65623 9.95156 3.65623 8.77031V7.32187L3.77341 7.17656C3.83904 7.10156 3.97029 7.0125 4.06873 6.97969C4.34998 6.89062 4.87966 6.61406 5.18435 6.39844C5.56873 6.12187 6.17341 5.475 6.39373 5.09062C6.71716 4.53281 6.04216 4.59375 12.0094 4.59375H17.2078L17.3297 4.72031Z" fill="#B3B3B3"/>
<path d="M11.3485 5.60625C10.8516 5.7375 10.5 5.95312 10.0781 6.375C9.6422 6.81093 9.4172 7.18125 9.23439 7.75781C9.08908 8.22656 9.05627 9.05156 9.16408 9.54375C9.73127 12.1219 12.5063 12.9516 14.1188 11.025C14.3344 10.7672 14.6297 10.2047 14.7375 9.84843C15.2063 8.26406 14.5078 6.47812 13.1672 5.82187C12.9516 5.71875 12.661 5.61093 12.525 5.58281C12.1875 5.5125 11.6531 5.52187 11.3485 5.60625ZM12.4969 6.15937C13.3219 6.37968 13.9922 7.11562 14.2313 8.0625C14.3344 8.46093 14.3297 9.13593 14.2313 9.54843C14.1094 10.0312 14.1235 10.0266 13.7485 9.85312C12.6656 9.35625 11.1656 9.36562 10.1578 9.87187C10.036 9.9375 9.91408 9.975 9.89064 9.96093C9.80158 9.90468 9.69377 9.43125 9.67033 8.97187C9.59533 7.66875 10.2985 6.52968 11.3813 6.18281C11.7 6.07968 12.1688 6.07031 12.4969 6.15937ZM12.5438 10.0828C12.9422 10.1391 13.65 10.3734 13.7391 10.4812C13.8281 10.5891 13.2844 11.0953 12.8672 11.3016C12.5531 11.4562 12.5156 11.4609 12 11.4609C11.4891 11.4609 11.4422 11.4516 11.1422 11.3109C10.7672 11.1328 10.5141 10.9453 10.3125 10.6875L10.1672 10.5047L10.3922 10.3922C11.0063 10.0828 11.7703 9.975 12.5438 10.0828Z" fill="#B3B3B3"/>
<path d="M11.6015 6.72188C11.0203 6.97501 10.7953 7.64532 11.1093 8.18907C11.5125 8.89688 12.539 8.86407 12.9 8.13282C13.1531 7.62188 12.9234 6.9797 12.4031 6.74532C12.1781 6.6422 11.8031 6.63282 11.6015 6.72188ZM12.2718 7.33595C12.3468 7.40157 12.4265 7.5047 12.4406 7.57032C12.4875 7.75313 12.3562 8.00157 12.1734 8.09063C11.7093 8.31095 11.3015 7.72032 11.6672 7.3547C11.8453 7.17657 12.075 7.17188 12.2718 7.33595Z" fill="#B3B3B3"/>
<path d="M5.39063 7.69219C4.80938 7.95469 4.52813 8.55 4.70156 9.14532C4.96875 10.05 6.15938 10.3125 6.77344 9.6C7.21875 9.07969 7.1625 8.34844 6.6375 7.88907C6.29063 7.58438 5.79844 7.50469 5.39063 7.69219ZM6.31406 8.35782C6.49219 8.55469 6.53906 8.7 6.49688 8.92969C6.36563 9.61407 5.35313 9.61407 5.22188 8.92969C5.18438 8.71407 5.22188 8.56875 5.37656 8.39063C5.54063 8.19375 5.64844 8.15157 5.925 8.175C6.12188 8.18907 6.18281 8.21719 6.31406 8.35782Z" fill="#B3B3B3"/>
<path d="M17.625 7.69219C17.0906 7.93125 16.8094 8.475 16.9219 9.02344C17.1141 9.94687 18.1781 10.3266 18.8859 9.71719C19.4672 9.22031 19.4484 8.29687 18.8531 7.84219C18.5062 7.575 18.0094 7.51875 17.625 7.69219ZM18.4266 8.22656C18.825 8.43281 18.8578 9.03281 18.4875 9.32344C18.2906 9.47812 18.0844 9.49219 17.8359 9.375C17.5875 9.25312 17.4703 9.06562 17.4703 8.77969C17.4703 8.31094 17.9953 8.00625 18.4266 8.22656Z" fill="#B3B3B3"/>
<path d="M8.0953 16.0734C7.56561 16.2891 7.20468 16.7859 7.14374 17.3766C7.11093 17.6672 7.11093 17.6719 6.96561 17.6719C6.88593 17.6719 6.33749 17.7047 5.75155 17.7422C4.59374 17.8172 4.38749 17.8641 4.11093 18.1312C3.77343 18.45 3.66093 19.0125 3.84374 19.4437C3.96093 19.7109 4.2328 19.9875 4.49061 20.0953C4.6078 20.1422 5.04843 20.1891 5.89218 20.2406L7.12499 20.3156V20.4797C7.12499 20.9531 7.42499 21.5062 7.81874 21.7547C8.0953 21.9281 8.29218 21.9844 8.65311 21.9844C9.04686 21.9844 9.3328 21.8719 9.62343 21.6094C10.0266 21.2391 11.1703 19.9359 11.3203 19.6734C11.4516 19.4484 11.4609 19.3922 11.4609 18.9844C11.4609 18.5766 11.4516 18.5203 11.3203 18.2953C11.2453 18.1594 10.95 17.7937 10.6641 17.475C9.42655 16.0969 9.3328 16.0266 8.6953 15.9984C8.40468 15.9891 8.26874 16.0031 8.0953 16.0734ZM9.0328 16.6266C9.22968 16.7156 10.6969 18.3047 10.8328 18.5719C10.95 18.8016 10.95 19.1672 10.8328 19.3969C10.7812 19.4906 10.5047 19.8328 10.2187 20.1562C9.13124 21.3656 9.06093 21.4219 8.61561 21.4219C8.12343 21.4219 7.7203 21.0375 7.71561 20.5687C7.71561 20.4328 7.72968 20.2453 7.74843 20.1562C7.78124 20.025 7.77186 19.9641 7.70155 19.8844C7.62186 19.7859 7.54686 19.7766 6.17343 19.6922C4.6078 19.5984 4.58436 19.5891 4.40624 19.2984C4.28905 19.1062 4.28905 18.8625 4.40624 18.6703C4.57968 18.3797 4.60311 18.375 6.17343 18.2812C6.96561 18.2297 7.62186 18.1875 7.62655 18.1875C7.63593 18.1875 7.67343 18.1359 7.71561 18.0703C7.78124 17.9719 7.78124 17.925 7.72968 17.7C7.66405 17.3906 7.71561 17.1328 7.9078 16.8797C8.13749 16.575 8.67655 16.4531 9.0328 16.6266Z" fill="#B3B3B3"/>
<path d="M16.7953 16.0828C16.2984 16.275 15.9234 16.8 15.8625 17.3813C15.8297 17.6672 15.8297 17.6719 15.6844 17.6719C15.6047 17.6719 15.0563 17.7047 14.461 17.7422C13.4485 17.8078 13.3688 17.8219 13.125 17.9391C12.3797 18.3141 12.2485 19.3219 12.8719 19.875C13.1719 20.1375 13.2844 20.1609 14.6063 20.2406L15.8344 20.3109L15.8625 20.5969C15.9188 21.1453 16.2422 21.6141 16.7344 21.8672C16.9735 21.9891 17.55 22.0172 17.8453 21.9188C18.1594 21.8156 18.3516 21.6422 19.2094 20.6953C20.0766 19.7391 20.2031 19.5234 20.2031 18.9844C20.2031 18.4875 20.0719 18.2391 19.4297 17.5219C18.1641 16.1109 18.0516 16.0266 17.4141 15.9984C17.1188 15.9891 16.9875 16.0031 16.7953 16.0828ZM17.8453 16.6688C18.0516 16.8188 19.4906 18.4266 19.5703 18.5953C19.6547 18.7688 19.6594 19.1906 19.5797 19.3734C19.5047 19.5422 18.0703 21.1406 17.8641 21.2859C17.6297 21.45 17.1563 21.4641 16.8984 21.3188C16.5281 21.1031 16.3641 20.7047 16.4625 20.25C16.5563 19.7859 16.6031 19.8 14.8922 19.6922C13.3266 19.5984 13.3031 19.5938 13.1203 19.2984C13.0125 19.125 13.0219 18.8203 13.1438 18.6328C13.2985 18.3938 13.4203 18.3703 14.925 18.2766C16.5938 18.1734 16.5516 18.1922 16.4578 17.7234C16.3641 17.2453 16.5328 16.8609 16.9219 16.65C17.1891 16.5094 17.6391 16.5188 17.8453 16.6688Z" fill="#B3B3B3"/>
</svg>
