<svg width="24" height="24" viewBox="0 0 24 24" fill="none" xmlns="http://www.w3.org/2000/svg">
<g clip-path="url(#clip0_48_62)">
<path d="M2.10469 1.47187C1.63594 1.59844 1.2 1.96875 0.960938 2.4375C0.740625 2.87344 0.703125 3.17812 0.703125 4.69687V6.09375H12.0047H23.3016L23.2875 4.60312L23.2734 3.11719L23.1234 2.79844C22.8234 2.16562 22.1156 1.63125 21.3797 1.47187C21.1641 1.42969 20.7281 1.40625 19.9359 1.40625H18.7969V2.47031C18.7969 3.06094 18.7734 3.61406 18.75 3.70312C18.7266 3.79688 18.6328 3.94219 18.5391 4.03125C18.4078 4.15781 18.3328 4.19062 18.1313 4.20937C17.925 4.22344 17.8547 4.20937 17.7234 4.11562C17.3672 3.87187 17.3672 3.87656 17.3531 2.57344L17.3344 1.40625H11.7141H6.09375V2.42344C6.08906 3.64687 6.06563 3.80156 5.84531 4.01719C5.54063 4.32656 4.99688 4.26562 4.76719 3.89531C4.66875 3.73594 4.66406 3.67031 4.65 2.56406L4.63594 1.40625L3.47813 1.41094C2.71875 1.41094 2.24531 1.43437 2.10469 1.47187Z" fill="white"/>
<path d="M0.7125 14.2828L0.726562 21.0234L0.848438 21.3328C1.07812 21.9281 1.44375 22.2984 1.9875 22.4859C2.2125 22.5656 2.70938 22.5703 11.8125 22.5703H21.3984L21.7125 22.4625C22.35 22.2422 22.9031 21.7781 23.1703 21.2344L23.3203 20.9297L23.3344 14.2406L23.3438 7.54687H12.0234H0.703125L0.7125 14.2828ZM7.30781 10.2328C7.36875 10.2609 7.46719 10.35 7.51875 10.4203C7.60781 10.5422 7.61719 10.6266 7.63125 11.5078C7.64531 12.3797 7.64063 12.4828 7.55625 12.675C7.39219 13.0453 7.35 13.0547 6.15938 13.0547C4.68281 13.0547 4.73438 13.1109 4.73438 11.6109C4.73438 10.1156 4.67344 10.1766 6.16406 10.1766C6.89063 10.1719 7.22813 10.1906 7.30781 10.2328ZM12.8859 10.2328C12.9469 10.2609 13.0453 10.35 13.0969 10.4203C13.1859 10.5422 13.1953 10.6266 13.2094 11.5219C13.2281 12.6 13.1953 12.7875 12.9703 12.9562C12.8438 13.05 12.7781 13.0547 11.7656 13.0547C10.2563 13.0547 10.3125 13.1156 10.3125 11.6109C10.3125 10.1156 10.2516 10.1766 11.7422 10.1766C12.4688 10.1719 12.8063 10.1906 12.8859 10.2328ZM18.5625 10.2422C18.8203 10.3781 18.8438 10.4859 18.8438 11.625C18.8438 13.1297 18.9188 13.0547 17.3953 13.0547C16.3641 13.0547 16.3313 13.05 16.1859 12.9469C15.9703 12.7922 15.9375 12.6187 15.9375 11.5875C15.9375 10.6031 15.9656 10.4531 16.1953 10.275C16.3219 10.1766 16.3688 10.1719 17.3766 10.1719C18.225 10.1719 18.4547 10.1859 18.5625 10.2422ZM7.39219 16.6312C7.60781 16.7859 7.64063 16.9594 7.64063 17.9672C7.64063 18.9234 7.6125 19.0547 7.3875 19.2656C7.26094 19.3828 7.25625 19.3828 6.20625 19.3969C5.20781 19.4109 5.14219 19.4062 4.99688 19.3125C4.74375 19.1578 4.72969 19.0687 4.74375 17.8922C4.75781 16.8469 4.75781 16.8328 4.87031 16.7156C4.93594 16.6453 5.05313 16.5703 5.12813 16.5469C5.20781 16.5234 5.71875 16.5094 6.25781 16.5141C7.2 16.5234 7.24688 16.5281 7.39219 16.6312ZM12.9422 16.6078C13.1766 16.7672 13.1953 16.8562 13.1953 17.9484C13.1953 18.5062 13.1813 19.0219 13.1578 19.0922C13.1391 19.1625 13.0547 19.2609 12.9703 19.3125C12.8344 19.3969 12.7313 19.4062 11.775 19.4062C10.2375 19.4062 10.3031 19.4719 10.3219 17.9062C10.3359 16.8422 10.3359 16.8328 10.4484 16.7156C10.5141 16.6453 10.6313 16.5703 10.7063 16.5469C10.7859 16.5234 11.2969 16.5094 11.8359 16.5141C12.6891 16.5234 12.8344 16.5328 12.9422 16.6078ZM18.4266 16.5469C18.5156 16.575 18.6422 16.65 18.7078 16.7156L18.8203 16.8375V17.9812V19.125L18.6891 19.2516L18.5625 19.3828H17.4188H16.275L16.1531 19.2703C15.9563 19.0828 15.9281 18.9 15.9469 17.85C15.9656 16.4812 15.9422 16.5047 17.3672 16.5047C17.8594 16.5 18.3328 16.5234 18.4266 16.5469Z" fill="white"/>
</g>
<defs>
<clipPath id="clip0_48_62">
<rect width="24" height="24" fill="white"/>
</clipPath>
</defs>
</svg>
