<svg width="24" height="24" viewBox="0 0 24 24" fill="none" xmlns="http://www.w3.org/2000/svg">
<g clip-path="url(#clip0_46_5)">
<g clip-path="url(#clip1_46_5)">
<path d="M5.36718 0.768633C5.03906 0.913944 4.92656 1.17176 4.92187 1.76707V2.10457L3.67031 2.11863C2.24999 2.14207 2.13281 2.16082 1.64062 2.49363C1.30781 2.71395 0.998432 3.10301 0.834369 3.50613L0.726557 3.77332L0.712494 12.5764C0.698432 22.2561 0.684369 21.7218 0.984369 22.2374C1.14843 22.5233 1.49062 22.8655 1.78124 23.0296C2.26874 23.3108 1.73437 23.2968 12 23.2968C22.1391 23.2968 21.6937 23.3061 22.1812 23.0577C22.4531 22.9171 22.8516 22.528 23.0156 22.2421C23.3109 21.7264 23.2969 22.2514 23.2969 12.7171C23.2969 6.51082 23.2828 3.96551 23.2453 3.78738C23.0953 3.07488 22.5937 2.49363 21.9 2.24051C21.6562 2.14676 21.5156 2.13738 20.3625 2.11863L19.0922 2.09988L19.0687 1.64051C19.0406 1.09207 18.9469 0.895195 18.6562 0.778008C18.4172 0.684258 18.2859 0.684258 18.0469 0.778008C17.7562 0.895195 17.6672 1.0827 17.6391 1.64051L17.6109 2.10926H12H6.38906L6.36093 1.64051C6.33281 1.0827 6.24374 0.895195 5.95312 0.778008C5.72812 0.688946 5.55468 0.684258 5.36718 0.768633ZM4.93124 3.97488C4.94531 4.22801 4.98281 4.4952 5.02031 4.57019C5.24531 5.03426 6.02343 5.04363 6.26249 4.58426C6.31406 4.48113 6.35156 4.27488 6.36562 3.9702L6.38906 3.51551H12H17.6109L17.6344 3.9702C17.6672 4.67332 17.8547 4.92176 18.3516 4.92176C18.8484 4.92176 19.0359 4.67332 19.0687 3.9702L19.0922 3.51082L20.2453 3.52488C21.5766 3.53894 21.6422 3.5577 21.8016 3.91394C21.8859 4.10144 21.8906 4.21863 21.8812 5.23582L21.8672 6.35144H12H2.13281L2.11874 5.24988C2.09999 3.49207 2.07187 3.5202 3.82499 3.51551H4.90781L4.93124 3.97488ZM21.8906 14.5405C21.8906 21.1405 21.8859 21.3093 21.7969 21.5061C21.7266 21.6608 21.6609 21.7264 21.5062 21.7968C21.3094 21.8858 21.1172 21.8905 12 21.8905C2.88281 21.8905 2.69062 21.8858 2.49374 21.7968C2.33906 21.7264 2.27343 21.6608 2.20312 21.5061C2.11406 21.3093 2.10937 21.1405 2.10937 14.5405V7.78113H12H21.8906V14.5405Z" fill="#B3B3B3"/>
<path d="M4.6875 9.61844C4.3125 9.81063 4.3125 9.82001 4.3125 11.6481C4.3125 13.4341 4.32188 13.4763 4.64062 13.6638C4.79531 13.7528 4.87969 13.7575 6.42188 13.7575C8.70938 13.7575 8.53125 13.9356 8.53125 11.6481C8.53125 9.89501 8.52656 9.84813 8.23594 9.6372C8.10938 9.54345 8.03438 9.53876 6.50156 9.52469C4.9125 9.51063 4.89844 9.51063 4.6875 9.61844ZM7.125 11.6481V12.3747H6.42188H5.71875V11.6481V10.9216H6.42188H7.125V11.6481Z" fill="#B3B3B3"/>
<path d="M10.4249 9.56719C10.2234 9.62344 10.0406 9.82031 9.98432 10.0406C9.95151 10.1578 9.93745 10.7859 9.94682 11.7656C9.96088 13.2375 9.96557 13.3125 10.0593 13.4344C10.1109 13.5047 10.214 13.6078 10.2843 13.6594C10.4109 13.7531 10.4718 13.7578 12.0703 13.7578C13.6687 13.7578 13.7296 13.7531 13.8562 13.6594C13.9265 13.6078 14.0296 13.5047 14.0812 13.4344C14.1749 13.3078 14.1796 13.2469 14.1796 11.6578C14.1796 9.35625 14.3624 9.54375 12.1406 9.52969C11.2781 9.525 10.5046 9.53906 10.4249 9.56719ZM12.7734 11.6484V12.3516H12.0703H11.3671L11.3531 11.6953C11.3484 11.3391 11.3531 11.0156 11.3624 10.9828C11.3812 10.9313 11.5406 10.9219 12.0796 10.9313L12.7734 10.9453V11.6484Z" fill="#B3B3B3"/>
<path d="M16.0594 9.5622C15.9891 9.58563 15.8859 9.64188 15.8344 9.68876C15.6234 9.87626 15.6094 9.98407 15.6094 11.6575C15.6094 13.4294 15.6188 13.4763 15.9375 13.6638C16.0922 13.7528 16.1766 13.7575 17.7188 13.7575C20.0063 13.7575 19.8281 13.9356 19.8281 11.6481C19.8281 9.82001 19.8281 9.80595 19.4531 9.61845C19.2516 9.51532 19.2141 9.51532 17.7188 9.52001C16.8797 9.52001 16.1344 9.54345 16.0594 9.5622ZM18.4219 11.6481V12.3747H17.7188H17.0156V11.6481V10.9216H17.7188H18.4219V11.6481Z" fill="#B3B3B3"/>
<path d="M4.65 15.9844C4.56562 16.0359 4.45781 16.1437 4.40625 16.2281C4.31719 16.3734 4.3125 16.4672 4.3125 18C4.3125 19.5328 4.31719 19.6266 4.40625 19.7719C4.45781 19.8562 4.56562 19.9641 4.65 20.0156C4.79531 20.1047 4.88906 20.1094 6.4125 20.1094C8.17031 20.1094 8.21719 20.1047 8.41406 19.8375C8.50312 19.7156 8.50781 19.6266 8.52187 18.0562C8.53594 16.2469 8.53125 16.2047 8.25937 16.0078C8.1375 15.9187 8.04844 15.9141 6.46875 15.9C4.875 15.8906 4.8 15.8906 4.65 15.9844ZM7.125 18V18.7031H6.42187H5.71875V18V17.2969H6.42187H7.125V18Z" fill="#B3B3B3"/>
<path d="M10.3124 15.9747C10.2234 16.0169 10.1109 16.1294 10.0546 16.2184C9.96556 16.3731 9.96088 16.4575 9.96088 17.9997C9.96088 20.2872 9.78275 20.1091 12.0703 20.1091C13.8562 20.1091 13.8984 20.0997 14.0859 19.7809C14.1749 19.6263 14.1796 19.5419 14.1796 17.9997C14.1796 15.7122 14.3578 15.8903 12.0703 15.8903C10.6453 15.8903 10.4578 15.8997 10.3124 15.9747ZM12.7968 17.9997V18.7028H12.0703H11.3437V17.9997V17.2966H12.0703H12.7968V17.9997Z" fill="#B3B3B3"/>
<path d="M15.9328 15.9841C15.6093 16.1528 15.6046 16.195 15.6187 18.0653L15.6328 19.7294L15.7687 19.87C15.839 19.945 15.9562 20.0341 16.0265 20.0622C16.1156 20.095 16.6687 20.1091 17.7984 20.0997L19.4437 20.0856L19.5703 19.9684C19.8281 19.7294 19.8281 19.7247 19.8281 17.9997C19.8281 16.2747 19.8281 16.27 19.5703 16.0309L19.4437 15.9138L17.775 15.9044C16.2 15.895 16.0921 15.8997 15.9328 15.9841ZM18.4218 17.9997V18.7028H17.7187H17.0156V17.9997V17.2966H17.7187H18.4218V17.9997Z" fill="#B3B3B3"/>
</g>
</g>
<defs>
<clipPath id="clip0_46_5">
<rect width="24" height="24" fill="white"/>
</clipPath>
<clipPath id="clip1_46_5">
<rect width="24" height="24" fill="white"/>
</clipPath>
</defs>
</svg>
