<svg width="24" height="24" viewBox="0 0 24 24" fill="none" xmlns="http://www.w3.org/2000/svg">
<path d="M11.5217 1.56668C10.9881 1.71445 11.1358 1.579 6.40738 6.29926C3.95285 8.75379 1.88825 10.843 1.82257 10.9415C1.31361 11.7009 1.41622 12.7188 2.06474 13.3714C2.44237 13.7449 2.9226 13.942 3.47261 13.942H3.75172V17.2256C3.75172 19.4462 3.76814 20.575 3.79687 20.7227C3.95285 21.4698 4.55622 22.147 5.30325 22.4056C5.57415 22.5 5.59468 22.5 7.57719 22.5C9.53096 22.5 9.57611 22.5 9.68694 22.4138C9.7485 22.3687 9.83881 22.2784 9.88396 22.2168C9.97015 22.106 9.97015 22.0526 9.99067 19.3641L10.0112 16.6223L10.1343 16.4211C10.2903 16.1708 10.6064 15.9696 10.9101 15.9327C11.025 15.9163 11.5997 15.9122 12.1866 15.9204L13.2538 15.9327L13.4714 16.0517C13.6766 16.1666 13.8079 16.3021 13.9352 16.5278C13.9803 16.614 13.9967 17.1189 14.0132 19.3682C14.0337 22.0526 14.0337 22.106 14.1199 22.2168C14.165 22.2784 14.2553 22.3687 14.3169 22.4138C14.4277 22.5 14.4729 22.5 16.4266 22.5C18.4092 22.5 18.4297 22.5 18.7006 22.4056C19.4476 22.147 20.051 21.4698 20.207 20.7227C20.2357 20.575 20.2521 19.4462 20.2521 17.2256V13.942H20.5312C21.5163 13.942 22.3126 13.2729 22.4768 12.3083C22.5384 11.9307 22.4768 11.5285 22.3003 11.1509C22.1813 10.9046 21.8242 10.5352 17.7114 6.41829C15.2609 3.96375 13.1676 1.89915 13.0609 1.82938C12.9542 1.7596 12.7695 1.66519 12.6504 1.62004C12.3631 1.50922 11.8131 1.48459 11.5217 1.56668Z" fill="white"/>
</svg>
