<svg width="24" height="24" viewBox="0 0 24 24" fill="none" xmlns="http://www.w3.org/2000/svg">
<path d="M11.3113 1.60429C11.1797 1.65776 11.0028 1.75234 10.9206 1.80992C10.8342 1.86749 8.75739 3.92787 6.2981 6.38715C2.69553 9.99794 1.81134 10.9027 1.72498 11.0754C1.33018 11.8733 1.46178 12.7451 2.06632 13.3538C2.44467 13.728 2.92583 13.9254 3.47691 13.9254H3.75656V17.2154C3.75656 19.4403 3.77301 20.5712 3.8018 20.7193C3.95808 21.4678 4.56262 22.1463 5.3111 22.4054C5.58252 22.5 5.60308 22.5 7.58943 22.5C9.54699 22.5 9.59223 22.5 9.70327 22.4136C9.76495 22.3684 9.85543 22.2779 9.90067 22.2162C9.98703 22.1052 9.98703 22.0517 10.0076 19.358L10.0282 16.6109L10.1515 16.4094C10.3078 16.1585 10.6245 15.957 10.9288 15.92C11.0439 15.9035 11.6197 15.8994 12.2078 15.9076L13.277 15.92L13.495 16.0392C13.7006 16.1544 13.8322 16.2901 13.9597 16.5163C14.005 16.6026 14.0214 17.1085 14.0379 19.3621C14.0584 22.0517 14.0584 22.1052 14.1448 22.2162C14.19 22.2779 14.2805 22.3684 14.3422 22.4136C14.4532 22.5 14.4985 22.5 16.456 22.5C18.4424 22.5 18.4629 22.5 18.7344 22.4054C19.4828 22.1463 20.0874 21.4678 20.2437 20.7193C20.2724 20.5712 20.2889 19.4403 20.2889 17.2154V13.9254H20.5685C21.3417 13.9254 22.0161 13.5141 22.3493 12.8356C22.4891 12.5518 22.4891 12.5436 22.4891 11.9925C22.4891 11.0549 22.962 11.6101 17.6815 6.33369C12.434 1.082 12.9604 1.53438 12.0638 1.51382C11.5991 1.50559 11.5292 1.51382 11.3113 1.60429ZM12.3271 2.78047C12.5697 2.89562 21.1649 11.5031 21.2553 11.7129C21.3417 11.9226 21.3335 12.0994 21.2307 12.3051C21.0785 12.6217 20.951 12.667 20.1573 12.6916C19.4129 12.7122 19.3595 12.7287 19.1621 12.996C19.0757 13.107 19.0757 13.1522 19.0551 16.8371L19.0346 20.5671L18.9194 20.7604C18.8577 20.8673 18.7467 21.003 18.6727 21.0565C18.3848 21.2786 18.2984 21.2868 16.7274 21.2868H15.2716V18.9838C15.2716 17.4745 15.2552 16.6109 15.2264 16.4669C15.066 15.6938 14.445 15.0276 13.6472 14.7767C13.3757 14.6903 13.2853 14.6862 12.0227 14.6862C10.5504 14.6862 10.4764 14.6944 9.95002 14.9618C9.42773 15.225 8.94245 15.8747 8.81907 16.4669C8.79029 16.6109 8.77384 17.4745 8.77384 18.9838V21.2868H7.318C5.74702 21.2868 5.66066 21.2786 5.37278 21.0565C5.29876 21.003 5.18772 20.8673 5.12603 20.7604L5.01088 20.5671L4.99032 16.8371C4.96976 13.1522 4.96976 13.107 4.88339 12.996C4.68599 12.7287 4.63253 12.7122 3.88816 12.6916C3.09445 12.667 2.96696 12.6217 2.8148 12.3051C2.71198 12.0994 2.70376 11.9226 2.79012 11.7129C2.87648 11.5072 11.4758 2.89974 11.7143 2.78047C11.924 2.67766 12.1173 2.67766 12.3271 2.78047Z" fill="#B3B3B3"/>
</svg>
