<svg width="512" height="512" viewBox="0 0 512 512" fill="none" xmlns="http://www.w3.org/2000/svg">
<path d="M401.049 69.4259C309.983 -22.4921 161.645 -23.1831 69.7269 67.8839C-22.1911 158.951 -22.8821 307.288 68.1849 399.206C68.8949 399.922 69.6089 400.634 70.3279 401.341L154.308 478.889C199.194 522.827 270.91 523.016 316.027 479.315L401.05 400.745C492.538 309.253 492.538 160.919 401.049 69.4259ZM363.181 288.332C363.181 317.739 339.342 341.578 309.935 341.578H160.846C131.439 341.578 107.6 317.739 107.6 288.332V216.514C107.6 195.568 117.865 175.952 135.075 164.013L198.97 119.691C220.888 104.545 249.892 104.545 271.811 119.691L335.706 164.013C352.916 175.952 363.181 195.568 363.181 216.514V288.332ZM320.584 216.513V288.331C320.584 294.212 315.816 298.98 309.935 298.98H277.987V256.383C277.987 244.62 268.451 235.085 256.689 235.085H214.092C202.329 235.085 192.794 244.621 192.794 256.383V298.98H160.846C154.965 298.98 150.197 294.212 150.197 288.331V216.513C150.195 209.529 153.617 202.987 159.355 199.006L223.25 154.684C230.562 149.656 240.218 149.656 247.53 154.684L311.425 199.006C317.164 202.987 320.586 209.529 320.584 216.513Z" fill="white"/>
</svg>
