<svg width="24" height="24" viewBox="0 0 24 24" fill="none" xmlns="http://www.w3.org/2000/svg">
<g clip-path="url(#clip0_48_543)">
<path d="M11.5265 0.131231C11.3437 0.224981 11.2359 0.32342 11.1328 0.492168C10.9969 0.712482 10.9922 0.735918 10.9734 1.40154L10.9594 2.08592L10.5515 2.16561C7.58436 2.74685 5.31561 5.29686 5.01561 8.38592C4.99217 8.63436 4.96873 9.63748 4.96873 10.6172C4.96873 12.539 4.94061 12.8672 4.71092 13.664C4.53279 14.2828 4.25623 14.8781 3.89529 15.4312C3.53436 15.975 3.24373 16.3172 2.68592 16.8469C2.10467 17.3953 1.89373 17.925 2.01561 18.5344C2.16561 19.2937 2.69529 19.8234 3.44529 19.9687C3.65154 20.0062 6.00936 20.0156 12.164 20.0062L20.6015 19.9922L20.8687 19.8844C21.2484 19.7297 21.6187 19.3781 21.8062 18.9937C21.9469 18.7125 21.9609 18.6422 21.9609 18.2578C21.9609 17.6203 21.839 17.3953 21.0422 16.5937C19.9828 15.5297 19.425 14.5172 19.1203 13.1344C19.0265 12.7219 19.0172 12.4734 18.9844 10.3828C18.9469 7.88436 18.9328 7.74373 18.6328 6.81561C17.8687 4.48123 15.8297 2.65779 13.4109 2.16092L13.0078 2.07654L12.9844 1.40154C12.9562 0.642168 12.9047 0.468731 12.6234 0.239044C12.3 -0.0281429 11.9062 -0.0656433 11.5265 0.131231Z" fill="white"/>
<path d="M4.99216 0.820298C4.7531 0.904673 4.08278 1.59373 3.52497 2.33905C1.98278 4.3828 1.12028 6.77342 1.0031 9.30467C0.965595 10.0734 1.00778 10.2797 1.24685 10.5469C1.69685 11.0437 2.49841 10.9594 2.8406 10.3828C2.9531 10.1859 2.96716 10.1062 3.00466 9.42186C3.08435 7.87967 3.4031 6.60936 4.03122 5.3203C4.49528 4.36405 4.99216 3.6328 5.75153 2.78436C6.25778 2.22186 6.33278 2.08592 6.33278 1.76717C6.33278 1.46249 6.26716 1.28436 6.07966 1.0828C5.78903 0.778111 5.3906 0.679673 4.99216 0.820298Z" fill="white"/>
<path d="M18.2625 0.820315C17.8922 0.951566 17.6297 1.33594 17.625 1.74844C17.625 2.07188 17.7141 2.24063 18.0984 2.65782C19.9172 4.61719 20.8312 6.80157 20.9812 9.5625C21.0141 10.1953 21.0703 10.3734 21.3141 10.6031C21.8016 11.0672 22.5656 10.9172 22.8844 10.2891C22.9734 10.1156 22.9781 10.05 22.9547 9.30469C22.8703 7.06407 22.1719 4.89375 20.925 3.01407C20.2734 2.03438 19.3641 1.00313 19.0078 0.839066C18.7875 0.735941 18.5156 0.731253 18.2625 0.820315Z" fill="white"/>
<path d="M8.37183 21.2437C8.48433 21.6516 8.83589 22.3172 9.11245 22.65C9.57651 23.2078 10.3359 23.6906 11.0625 23.8875C11.5265 24.0141 12.4734 24.0047 12.9515 23.8687C14.2125 23.5078 15.1828 22.575 15.5578 21.3562C15.6093 21.1828 15.6562 21.0281 15.6562 21.0187C15.6562 21.0094 14.0015 21 11.9812 21H8.30151L8.37183 21.2437Z" fill="white"/>
</g>
<defs>
<clipPath id="clip0_48_543">
<rect width="24" height="24" fill="white"/>
</clipPath>
</defs>
</svg>
