<svg width="17" height="17" viewBox="0 0 17 17" fill="none" xmlns="http://www.w3.org/2000/svg">
<path d="M1.36508 0.0608135C1.05559 0.121626 0.607932 0.370407 0.431079 0.580488C0.348179 0.668944 0.221066 0.884553 0.143693 1.05041L0 1.35447V8.51382V15.6732L0.18238 16.0436C0.381339 16.4472 0.618986 16.6738 1.06112 16.8784L1.3264 17H8.48342H15.6404L15.9499 16.8563C16.3423 16.6738 16.6408 16.3753 16.8231 15.9828L16.9668 15.6732L16.9834 13.2241L17 10.7805H16.4197H15.8339V13.1024C15.8339 14.7776 15.8173 15.4576 15.7676 15.5626C15.6239 15.8833 15.9997 15.8667 8.48895 15.8667C3.24967 15.8667 1.54746 15.8501 1.43693 15.8003C1.11638 15.6566 1.13296 16.0325 1.13296 8.51382C1.13296 0.995122 1.11638 1.37106 1.43693 1.22732C1.54194 1.17756 2.28251 1.16098 4.17263 1.16098H6.77016V0.580488V4.6147e-07L4.18921 0.00552892C2.76333 0.0110574 1.49772 0.0331712 1.36508 0.0608135Z" fill="white"/>
<path d="M12.4627 0.580485V1.16097H13.7449H15.0326L9.86518 6.33008L4.69775 11.4992L5.1012 11.8972L5.49912 12.3008L10.6665 7.13171L15.834 1.9626V3.25073V4.53333H16.4143H17.0001L16.9835 2.47122C16.9669 0.154794 16.9669 0.171379 16.569 0.06081C16.4419 0.0221108 15.5963 -2.97884e-06 14.4136 -2.97884e-06H12.4627V0.580485Z" fill="white"/>
</svg>
