<svg width="24" height="24" viewBox="0 0 24 24" fill="none" xmlns="http://www.w3.org/2000/svg">
<path d="M11.5078 0.0656261C11.1141 0.164064 10.8188 0.332813 10.5188 0.632814C10.036 1.11563 9.89066 1.54688 9.89066 2.52188V3.11719L9.52503 3.25313C7.32191 4.06875 5.63909 5.87344 5.01097 8.10938C4.79065 8.87813 4.77659 9.08438 4.7344 11.2969C4.69222 13.6031 4.66878 13.8984 4.40159 15C4.11097 16.1859 3.58128 17.3906 2.89222 18.4313C2.59222 18.8859 2.32034 19.2328 1.6219 20.0391C1.34065 20.3672 1.44378 20.8969 1.82815 21.0938C2.00628 21.1828 2.09534 21.1875 5.28753 21.1875H8.56878L8.59691 21.3469C8.71878 21.9984 9.29066 22.8422 9.93753 23.3203C10.2235 23.5313 10.7391 23.7797 11.1094 23.8875C11.4891 23.9953 12.4125 24.0094 12.7969 23.9109C13.9782 23.6156 14.9578 22.7156 15.3141 21.6047L15.4453 21.1875H18.7172C21.9 21.1875 21.9938 21.1828 22.1719 21.0938C22.2938 21.0328 22.3922 20.9344 22.4532 20.8125C22.6313 20.4656 22.561 20.2172 22.1766 19.8047C20.9813 18.525 20.0297 16.7578 19.5985 15C19.3313 13.9125 19.3032 13.6078 19.2657 11.2969C19.2235 9.07969 19.2094 8.88282 18.9891 8.10469C18.3657 5.87813 16.6032 3.99844 14.4282 3.22969L14.1094 3.11719V2.52188C14.1094 1.55156 13.9641 1.11563 13.4766 0.628126C12.9516 0.0984383 12.2157 -0.112499 11.5078 0.0656261ZM12.3282 1.5C12.6094 1.64531 12.7032 1.86563 12.7032 2.4V2.83594H12H11.2969V2.39063C11.3016 1.86563 11.3719 1.6875 11.6532 1.51875C11.8782 1.38281 12.0844 1.37813 12.3282 1.5ZM12.8438 4.28906C13.5188 4.39219 13.936 4.52344 14.5547 4.82344C16.2094 5.63438 17.3297 7.07344 17.7422 8.90625C17.8078 9.19219 17.8313 9.66094 17.8594 11.3906C17.8922 13.1719 17.911 13.6219 17.9907 14.1328C18.2907 16.0359 18.9235 17.6906 19.936 19.2047C20.1188 19.4813 20.2828 19.725 20.2875 19.7438C20.2969 19.7672 16.5657 19.7813 12 19.7813C7.4344 19.7813 3.70315 19.7672 3.71253 19.7438C3.7219 19.725 3.88128 19.4813 4.06409 19.2047C5.0719 17.6953 5.71409 16.0172 6.00941 14.1375C6.08909 13.6266 6.10784 13.1672 6.14066 11.3906C6.16878 9.66094 6.19222 9.19219 6.25784 8.90625C6.52034 7.73438 7.04534 6.77344 7.87034 5.94844C8.39066 5.43282 8.86878 5.09531 9.5344 4.77656C10.561 4.28906 11.7282 4.11563 12.8438 4.28906ZM13.9688 21.2156C13.9688 21.3328 13.6266 21.8438 13.4297 22.0219C12.6094 22.7719 11.4094 22.7813 10.5891 22.0453C10.3688 21.8438 10.1157 21.4875 10.0547 21.2906L10.0266 21.1875H11.9953C13.0828 21.1875 13.9688 21.2016 13.9688 21.2156Z" fill="#B3B3B3"/>
<path d="M4.66876 2.52656C4.51876 2.62969 3.94689 3.24844 3.63283 3.65625C2.45626 5.18438 1.67814 7.16719 1.5047 9.09375C1.4297 9.90938 1.43908 10.1906 1.54689 10.4063C1.6547 10.6172 1.92189 10.7812 2.15626 10.7812C2.56876 10.7812 2.85939 10.4344 2.85939 9.94219C2.85939 9.525 2.94376 8.75156 3.05158 8.22656C3.34689 6.76406 4.12033 5.20313 5.09064 4.11094C5.69064 3.44063 5.71876 3.39375 5.71876 3.12188C5.71876 2.85469 5.62033 2.66719 5.40939 2.52656C5.22658 2.40469 4.85158 2.40938 4.66876 2.52656Z" fill="#B3B3B3"/>
<path d="M18.5906 2.52656C18.3797 2.66719 18.2812 2.85469 18.2812 3.12656C18.2812 3.39375 18.2906 3.40781 18.9281 4.13437C19.8938 5.23125 20.6578 6.77812 20.9484 8.22656C21.0563 8.75156 21.1406 9.525 21.1406 9.94219C21.1406 10.4344 21.4313 10.7812 21.8438 10.7812C22.0781 10.7812 22.3453 10.6172 22.4531 10.4062C22.5609 10.1953 22.5703 9.90469 22.5 9.11719C22.3172 7.14844 21.5156 5.11875 20.325 3.60937C19.9547 3.14062 19.5141 2.65781 19.35 2.54062C19.1531 2.40469 18.7875 2.4 18.5906 2.52656Z" fill="#B3B3B3"/>
</svg>
