<svg width="24" height="24" viewBox="0 0 24 24" fill="none" xmlns="http://www.w3.org/2000/svg">
<g clip-path="url(#clip0_9_35)">
<path d="M11.5828 0.051609C11.0953 0.145359 10.8469 0.318796 9.89998 1.22348C9.30466 1.79067 8.93435 2.10942 8.81716 2.15161C8.6531 2.21255 8.5406 2.20317 7.5656 2.07192C6.97498 1.98755 6.35154 1.91723 6.18279 1.91723C5.47966 1.90786 4.84216 2.24536 4.44841 2.82661C4.21404 3.18286 4.16248 3.3563 3.93748 4.65005C3.83435 5.24067 3.71716 5.78442 3.67966 5.86411C3.5906 6.02817 3.46873 6.10786 2.50779 6.60942C1.19998 7.2938 0.974976 7.47192 0.703101 8.03911C0.553101 8.35786 0.510913 8.58286 0.506226 9.00942C0.506226 9.40317 0.576538 9.60005 1.15779 10.7907C1.53748 11.5735 1.65466 11.8547 1.65466 12C1.65466 12.1454 1.53748 12.4266 1.15779 13.2094C0.576538 14.4 0.506226 14.5969 0.506226 14.9907C0.510913 15.4172 0.553101 15.6422 0.703101 15.961C0.974976 16.5282 1.19998 16.7063 2.50779 17.3907C3.46873 17.8922 3.5906 17.9719 3.67966 18.136C3.71716 18.2157 3.83435 18.7594 3.93748 19.3547C4.0406 19.9454 4.15779 20.5266 4.1906 20.6438C4.44373 21.4875 5.23123 22.0735 6.11716 22.0829C6.29998 22.0875 6.93748 22.0172 7.54216 21.9329C8.5406 21.7969 8.6531 21.7875 8.81716 21.8485C8.93435 21.8907 9.30466 22.2094 9.89998 22.7766C10.6172 23.4657 10.8609 23.6672 11.0953 23.775C11.4937 23.9625 11.9156 24.0282 12.3094 23.9625C12.8953 23.8641 13.1109 23.7235 14.1 22.7766C14.6953 22.2094 15.0656 21.8907 15.1828 21.8485C15.3469 21.7875 15.4594 21.7969 16.4344 21.9282C17.025 22.0125 17.6484 22.0829 17.8172 22.0829C18.5203 22.0922 19.1578 21.7547 19.5515 21.1735C19.7859 20.8172 19.8375 20.6438 20.0625 19.35C20.1656 18.7594 20.2828 18.2157 20.3203 18.136C20.4094 17.9672 20.5125 17.9016 21.614 17.325C22.6547 16.7766 22.8844 16.6125 23.1328 16.2375C23.3812 15.8719 23.489 15.525 23.4937 15.0657C23.4937 14.5875 23.4469 14.4516 22.8422 13.2094C22.4625 12.4266 22.3453 12.1454 22.3453 12C22.3453 11.8547 22.4625 11.5735 22.8422 10.7907C23.4469 9.54848 23.4937 9.41255 23.4937 8.93442C23.489 8.47505 23.3812 8.12817 23.1328 7.76255C22.8844 7.38755 22.6547 7.22348 21.614 6.67505C20.5125 6.09848 20.4094 6.03286 20.3203 5.86411C20.2828 5.78442 20.1656 5.24067 20.0625 4.65005C19.8375 3.3563 19.7859 3.18286 19.5515 2.82661C19.1578 2.24536 18.5203 1.90786 17.8172 1.91723C17.6484 1.91723 17.025 1.98755 16.4344 2.07192C15.4594 2.20317 15.3469 2.21255 15.1828 2.15161C15.0656 2.10942 14.6953 1.79067 14.1 1.22348C13.3922 0.548483 13.1344 0.332859 12.914 0.229733C12.464 0.018795 12.0422 -0.0374546 11.5828 0.051609ZM12.3515 1.49536C12.4312 1.54692 12.8765 1.95473 13.35 2.40473C14.2875 3.30942 14.5359 3.47348 15.089 3.55786C15.4078 3.60942 15.5156 3.60005 16.9547 3.3938C17.4515 3.32348 17.8828 3.2813 17.9765 3.30005C18.1734 3.33755 18.389 3.51567 18.4594 3.68911C18.4875 3.76411 18.6 4.31723 18.7078 4.92192C18.914 6.11255 18.989 6.36098 19.2469 6.73598C19.4765 7.07348 19.6922 7.2188 20.8406 7.82817C21.3797 8.1188 21.8578 8.38598 21.9094 8.42817C22.0265 8.5313 22.125 8.77505 22.125 8.95786C22.125 9.05161 21.9234 9.51567 21.5859 10.2141C21.0281 11.3672 20.9531 11.5735 20.9531 12C20.9531 12.4266 21.0281 12.6329 21.5859 13.786C21.9234 14.4844 22.125 14.9485 22.125 15.0422C22.125 15.225 22.0265 15.4688 21.9094 15.5719C21.8578 15.6141 21.3797 15.8813 20.8406 16.1719C19.6922 16.7813 19.4765 16.9266 19.2469 17.2641C18.989 17.6391 18.914 17.8875 18.7078 19.0782C18.6 19.6829 18.4875 20.236 18.4594 20.311C18.389 20.4844 18.1734 20.6625 17.9765 20.7C17.8828 20.7188 17.4515 20.6766 16.9547 20.6063C15.5156 20.4 15.4078 20.3907 15.089 20.4422C14.5359 20.5266 14.2875 20.6907 13.35 21.5954C12.8765 22.0454 12.4312 22.4532 12.3515 22.5047C12.1922 22.6079 11.8453 22.6219 11.6859 22.5329C11.6297 22.5 11.2031 22.111 10.7344 21.6657C9.82498 20.7985 9.63748 20.6579 9.23435 20.5172C8.85935 20.3907 8.41873 20.4047 7.23279 20.5782C6.60466 20.6672 6.12185 20.7188 6.02341 20.7C5.82654 20.6625 5.61091 20.4844 5.5406 20.311C5.51248 20.236 5.39998 19.6829 5.29216 19.0782C5.08591 17.8875 5.01091 17.6391 4.7531 17.2641C4.52341 16.9266 4.30779 16.7813 3.15935 16.1719C2.62029 15.8813 2.14216 15.6141 2.0906 15.5719C1.97341 15.4688 1.87498 15.225 1.87498 15.0422C1.87498 14.9485 2.07654 14.4844 2.41404 13.786C2.97185 12.6329 3.04685 12.4266 3.04685 12C3.04685 11.5735 2.97185 11.3672 2.41404 10.2141C2.07654 9.51567 1.87498 9.05161 1.87498 8.95786C1.87498 8.77505 1.97341 8.5313 2.0906 8.42817C2.14216 8.38598 2.62029 8.1188 3.15935 7.82817C4.30779 7.2188 4.52341 7.07348 4.7531 6.73598C5.01091 6.36098 5.08591 6.11255 5.29216 4.92192C5.39998 4.31723 5.51248 3.76411 5.5406 3.68911C5.61091 3.51567 5.82654 3.33755 6.02341 3.30005C6.11716 3.2813 6.54841 3.32348 7.04529 3.3938C8.48435 3.60005 8.59216 3.60942 8.91091 3.55786C9.46404 3.47348 9.71248 3.30942 10.65 2.40473C11.1234 1.95473 11.5734 1.54692 11.6484 1.49536C11.7328 1.4438 11.8734 1.4063 12 1.4063C12.1265 1.4063 12.2672 1.4438 12.3515 1.49536Z" fill="#B3B3B3"/>
<path d="M8.69531 5.83628C7.53281 6.0941 6.70312 7.13003 6.70312 8.31128C6.70781 9.4316 7.46719 10.4253 8.57344 10.7535C8.89688 10.8472 9.50625 10.8519 9.85781 10.7582C10.7859 10.5191 11.5406 9.71285 11.7234 8.77535C12.0609 7.02691 10.4344 5.44722 8.69531 5.83628ZM9.825 7.33628C10.4438 7.72066 10.5609 8.5691 10.0641 9.08472C9.60469 9.56285 8.8875 9.57222 8.41875 9.11285C8.12344 8.81753 8.00625 8.25503 8.16563 7.87535C8.4375 7.23316 9.23906 6.97535 9.825 7.33628Z" fill="#B3B3B3"/>
<path d="M16.2891 6.80181C16.1438 6.8815 6.89533 16.1346 6.81564 16.2753C6.66095 16.5659 6.78751 16.9737 7.08751 17.1565C7.25626 17.2596 7.5422 17.2784 7.70158 17.1987C7.84689 17.1237 17.1 7.87994 17.1844 7.72525C17.3391 7.43463 17.2125 7.02681 16.9125 6.844C16.7438 6.74088 16.4391 6.72213 16.2891 6.80181Z" fill="#B3B3B3"/>
<path d="M14.1234 13.2427C13.2093 13.4912 12.4593 14.2974 12.2765 15.2255C12.164 15.8068 12.3093 16.5521 12.6281 17.0396C13.0312 17.649 13.7062 18.0896 14.4046 18.1974C15.9093 18.4271 17.3015 17.2224 17.2968 15.6896C17.2921 14.5693 16.5328 13.5755 15.4265 13.2474C15.1125 13.1537 14.4609 13.1537 14.1234 13.2427ZM15.2765 14.6724C15.6703 14.8693 15.9093 15.263 15.9046 15.7037C15.8953 16.3787 15.3703 16.8615 14.6906 16.8193C13.7343 16.7583 13.275 15.6052 13.9359 14.9162C14.2921 14.5412 14.8312 14.4427 15.2765 14.6724Z" fill="#B3B3B3"/>
</g>
<defs>
<clipPath id="clip0_9_35">
<rect width="24" height="24" fill="white"/>
</clipPath>
</defs>
</svg>
