<svg width="24" height="24" viewBox="0 0 24 24" fill="none" xmlns="http://www.w3.org/2000/svg">
<path d="M10.9453 0.070323C9.66558 0.267199 8.52182 0.876574 7.62651 1.82814C6.64214 2.87345 6.1312 4.08282 6.06089 5.53126C5.96245 7.55626 6.9562 9.4922 8.67182 10.6125C9.51557 11.1656 10.3265 11.4469 11.3109 11.5266C13.1343 11.6672 14.6906 11.0953 15.9468 9.81564C16.9453 8.80314 17.4515 7.69689 17.5734 6.28595C17.7421 4.40157 17.0296 2.64845 15.6093 1.42032C14.6906 0.632823 13.8468 0.239073 12.6796 0.070323C12.1171 -0.00936413 11.4609 -0.0140514 10.9453 0.070323Z" fill="white"/>
<path d="M6.68904 11.6297C4.57029 11.8547 3.09842 13.3734 2.41404 16.0547C1.95935 17.8406 1.84217 19.9875 2.13279 21.1641C2.37185 22.1063 3.15467 23.0625 4.05936 23.5219C4.46717 23.7281 5.0531 23.8969 5.54529 23.9531C5.83592 23.9906 8.04842 24 12.2812 23.9906L18.5859 23.9766L18.9844 23.8641C20.4656 23.4609 21.4781 22.4672 21.8484 21.0703C22.0406 20.3438 22.0172 18.6094 21.7922 17.2406C21.3 14.1938 20.0531 12.3656 18.0797 11.7938C17.6297 11.6625 16.8234 11.5641 16.5844 11.6109C16.3547 11.6531 16.0359 11.8219 15.314 12.2859C14.5453 12.7828 14.4375 12.8391 13.8609 13.0547C13.1953 13.3031 12.6469 13.4109 12.0047 13.4109C11.3484 13.4109 10.8422 13.3172 10.1765 13.0828C9.54842 12.8578 9.52029 12.8438 8.53592 12.2203C8.02029 11.8922 7.63592 11.6813 7.48592 11.6391C7.22342 11.5734 7.22342 11.5734 6.68904 11.6297Z" fill="white"/>
</svg>
