<svg width="512" height="512" viewBox="0 0 512 512" fill="none" xmlns="http://www.w3.org/2000/svg">
<path d="M-0.000142425 133.12C-0.000142425 296.107 216.107 512 378.88 512C414.507 512 447.787 498.56 472.32 474.027L493.653 449.493C518.4 424.747 518.4 382.933 492.587 357.12C491.947 356.48 440.533 317.013 440.533 317.013C414.933 292.693 374.613 292.693 349.227 317.013L318.08 341.973C249.813 312.96 201.387 264.32 170.24 193.707L194.987 162.56C219.52 137.173 219.52 96.6401 194.987 71.2534C194.987 71.2534 155.52 19.8401 154.88 19.2001C129.067 -6.61325 87.2532 -6.61325 61.4398 19.2001L39.0399 38.6134C13.4399 64.0001 -0.000142425 97.2801 -0.000142425 132.907V133.12Z" fill="white"/>
</svg>
