<svg width="24" height="24" viewBox="0 0 24 24" fill="none" xmlns="http://www.w3.org/2000/svg">
<g clip-path="url(#clip0_9_93)">
<path d="M11.5828 0.0515461C11.0953 0.145296 10.8469 0.318733 9.89998 1.22342C9.30466 1.79061 8.93435 2.10936 8.81716 2.15154C8.6531 2.21248 8.5406 2.20311 7.5656 2.07186C6.97498 1.98748 6.35154 1.91717 6.18279 1.91717C5.47966 1.90779 4.84216 2.24529 4.44841 2.82655C4.21404 3.18279 4.16248 3.35623 3.93748 4.64998C3.83435 5.24061 3.71716 5.78436 3.67966 5.86405C3.5906 6.02811 3.46873 6.1078 2.50779 6.60936C1.19998 7.29373 0.974976 7.47186 0.703101 8.03905C0.553101 8.3578 0.510913 8.5828 0.506226 9.00936C0.506226 9.40311 0.576538 9.59998 1.15779 10.7906C1.53748 11.5734 1.65466 11.8547 1.65466 12C1.65466 12.1453 1.53748 12.4265 1.15779 13.2094C0.576538 14.4 0.506226 14.5969 0.506226 14.9906C0.510913 15.4172 0.553101 15.6422 0.703101 15.9609C0.974976 16.5281 1.19998 16.7062 2.50779 17.3906C3.46873 17.8922 3.5906 17.9719 3.67966 18.1359C3.71716 18.2156 3.83435 18.7594 3.93748 19.3547C4.0406 19.9453 4.15779 20.5265 4.1906 20.6437C4.44373 21.4875 5.23123 22.0734 6.11716 22.0828C6.29998 22.0875 6.93748 22.0172 7.54216 21.9328C8.5406 21.7969 8.6531 21.7875 8.81716 21.8484C8.93435 21.8906 9.30466 22.2094 9.89998 22.7765C10.6172 23.4656 10.8609 23.6672 11.0953 23.775C11.4937 23.9625 11.9156 24.0281 12.3094 23.9625C12.8953 23.864 13.1109 23.7234 14.1 22.7765C14.6953 22.2094 15.0656 21.8906 15.1828 21.8484C15.3469 21.7875 15.4594 21.7969 16.4344 21.9281C17.025 22.0125 17.6484 22.0828 17.8172 22.0828C18.5203 22.0922 19.1578 21.7547 19.5515 21.1734C19.7859 20.8172 19.8375 20.6437 20.0625 19.35C20.1656 18.7594 20.2828 18.2156 20.3203 18.1359C20.4094 17.9672 20.5125 17.9015 21.614 17.325C22.6547 16.7765 22.8844 16.6125 23.1328 16.2375C23.3812 15.8719 23.489 15.525 23.4937 15.0656C23.4937 14.5875 23.4468 14.4515 22.8422 13.2094C22.4625 12.4265 22.3453 12.1453 22.3453 12C22.3453 11.8547 22.4625 11.5734 22.8422 10.7906C23.4468 9.54842 23.4937 9.41248 23.4937 8.93436C23.489 8.47498 23.3812 8.12811 23.1328 7.76248C22.8844 7.38748 22.6547 7.22342 21.614 6.67498C20.5125 6.09842 20.4094 6.03279 20.3203 5.86405C20.2828 5.78436 20.1656 5.24061 20.0625 4.64998C19.8375 3.35623 19.7859 3.18279 19.5515 2.82655C19.1578 2.24529 18.5203 1.90779 17.8172 1.91717C17.6484 1.91717 17.025 1.98748 16.4344 2.07186C15.4594 2.20311 15.3469 2.21248 15.1828 2.15154C15.0656 2.10936 14.6953 1.79061 14.1 1.22342C13.3922 0.54842 13.1344 0.332794 12.914 0.22967C12.464 0.0187302 12.0422 -0.0375175 11.5828 0.0515461ZM9.76404 5.83592C10.8469 6.06561 11.6672 7.01717 11.7515 8.14217C11.8406 9.32811 11.025 10.4531 9.85779 10.7578C8.99998 10.9828 8.09998 10.725 7.4531 10.0781C6.68435 9.30936 6.48748 8.20311 6.94216 7.2328C7.44373 6.16873 8.61091 5.59217 9.76404 5.83592ZM15.4265 13.2469C16.0875 13.4437 16.725 13.9594 17.0109 14.5265C17.4984 15.4875 17.339 16.65 16.6265 17.3953C15.8109 18.2484 14.6906 18.4594 13.664 17.9578C12.839 17.55 12.314 16.7719 12.2484 15.8578C12.1594 14.6859 12.9703 13.5562 14.1234 13.2422C14.4609 13.1531 15.1125 13.1531 15.4265 13.2469Z" fill="white"/>
<circle cx="9.23002" cy="8.29999" r="1.81" fill="#B3B3B3" stroke="white" stroke-width="1.32"/>
<circle cx="14.76" cy="15.69" r="1.81" fill="#B3B3B3" stroke="white" stroke-width="1.32"/>
<rect x="6.5022" y="16.5559" width="14.2244" height="1.3" rx="0.6" transform="rotate(-45 6.5022 16.5559)" fill="#B3B3B3"/>
</g>
<defs>
<clipPath id="clip0_9_93">
<rect width="24" height="24" fill="white"/>
</clipPath>
</defs>
</svg>
