<svg width="24" height="24" viewBox="0 0 24 24" fill="none" xmlns="http://www.w3.org/2000/svg">
<path d="M10.9453 0.070323C9.66564 0.267199 8.52189 0.876574 7.62657 1.82814C6.6422 2.87345 6.13126 4.08282 6.06095 5.53126C5.96251 7.55626 6.95626 9.4922 8.67189 10.6125C9.51564 11.1656 10.3266 11.4469 11.3109 11.5266C13.1344 11.6672 14.6906 11.0953 15.9469 9.81564C17.175 8.56407 17.7234 7.02189 17.5734 5.25001C17.4422 3.73126 16.7719 2.42345 15.6094 1.42032C14.6906 0.632823 13.8469 0.239073 12.6797 0.070323C12.1172 -0.00936413 11.4609 -0.0140514 10.9453 0.070323ZM12.9422 1.5422C13.6781 1.7297 14.2313 2.05313 14.85 2.64845C15.6563 3.41251 16.0641 4.25626 16.1719 5.34845C16.2984 6.6422 15.9 7.82345 15.0234 8.76095C14.4797 9.3422 13.6781 9.83439 12.9984 10.0078C11.9906 10.2609 10.7906 10.1531 9.92814 9.72657C8.75157 9.14532 7.8797 8.05782 7.56095 6.77345C7.43907 6.28126 7.45314 5.17032 7.58907 4.66407C7.95001 3.3047 9.13126 2.04376 10.4438 1.6172C11.1563 1.38751 12.2203 1.3547 12.9422 1.5422Z" fill="#ffffff"/>
<path d="M6.68909 11.6297C5.9719 11.7047 5.23128 11.9766 4.64534 12.3703C3.18284 13.3641 2.23596 15.5859 2.01565 18.5391C1.89378 20.1984 1.99221 21.0188 2.41878 21.8766C2.65315 22.3547 3.09846 22.8797 3.55315 23.2172C3.90003 23.4703 4.48128 23.7328 4.99221 23.8641L5.41409 23.9766H11.9766H18.5391L18.961 23.8688C20.4422 23.4797 21.4782 22.4813 21.8485 21.0703C22.0407 20.3438 22.0172 18.6094 21.7922 17.2406C21.3 14.1938 20.0532 12.3656 18.0797 11.7938C17.6297 11.6625 16.8235 11.5641 16.5844 11.6109C16.3547 11.6531 16.036 11.8219 15.3141 12.2859C14.536 12.7875 14.4141 12.8531 13.8328 13.0641C13.1485 13.3125 12.6375 13.4109 12.0047 13.4109C11.3485 13.4109 10.8422 13.3172 10.1766 13.0828C9.54846 12.8578 9.52034 12.8438 8.53596 12.2203C8.02034 11.8922 7.63596 11.6813 7.48596 11.6391C7.22346 11.5734 7.22346 11.5734 6.68909 11.6297ZM7.90784 13.4813C8.78909 14.0484 9.1594 14.2313 9.93284 14.4844C11.9485 15.1453 14.0063 14.8266 15.9469 13.5563C16.8235 12.9797 16.8047 12.9891 17.175 13.0359C18.8766 13.2516 19.9407 14.6813 20.3907 17.3672C20.5735 18.4734 20.6297 20.0156 20.5078 20.6016C20.311 21.5438 19.6735 22.2094 18.6985 22.4859C18.4172 22.5656 18.0469 22.5703 11.9766 22.5703C5.89221 22.5703 5.54065 22.5656 5.25003 22.4859C4.55159 22.2891 3.9469 21.8109 3.66565 21.2344C3.4219 20.7375 3.36096 20.3203 3.39846 19.3125C3.43128 18.2953 3.47815 17.8219 3.64221 16.9922C3.76409 16.3453 4.05003 15.4266 4.25159 15.0281C4.85628 13.8281 5.67659 13.1719 6.74065 13.0359C6.91409 13.0125 7.07346 12.9938 7.09221 12.9891C7.11096 12.9891 7.47659 13.2094 7.90784 13.4813Z" fill="#ffffff"/>
</svg>
