<svg width="24" height="24" viewBox="0 0 24 24" fill="none" xmlns="http://www.w3.org/2000/svg">
<g clip-path="url(#clip0_20_944)">
<path d="M0.782813 0.0656395C0.689063 0.10314 0.58125 0.154703 0.54375 0.182827C0.421875 0.285954 0.328125 0.553141 0.328125 0.792202C0.328125 0.989079 2.30156 9.96095 2.35313 10.0078C2.36719 10.0219 11.9297 11.6813 13.0922 11.8735C13.4203 11.9297 13.6875 11.986 13.6875 12C13.6875 12.0141 13.4203 12.0703 13.0922 12.1266C11.925 12.3188 2.36719 13.9781 2.35313 13.9922C2.30156 14.0391 0.328125 23.011 0.328125 23.2078C0.328125 23.761 0.740625 24.0938 1.26094 23.9531C1.5 23.8875 23.2828 12.7266 23.4281 12.5906C23.6016 12.436 23.6719 12.2625 23.6719 12C23.6719 11.7375 23.6016 11.5641 23.4281 11.4094C23.2922 11.2828 1.51406 0.112514 1.275 0.0468903C1.05469 -0.0140476 1.00313 -0.00935936 0.782813 0.0656395Z" fill="white"/>
</g>
<defs>
<clipPath id="clip0_20_944">
<rect width="24" height="24" fill="white"/>
</clipPath>
</defs>
</svg>
