<svg width="20" height="20" viewBox="0 0 20 20" fill="none" xmlns="http://www.w3.org/2000/svg">
<path d="M6.23047 1.28516C6.1875 1.30469 6.10937 1.36719 6.05469 1.42578L5.95703 1.53125L5.94531 7.79688L5.9375 14.0625H10H14.0625V13.5977V13.1367L13.7031 13.1094C11.1484 12.918 9.09766 10.9688 8.78906 8.4375C8.51953 6.21484 9.71875 4.01562 11.7383 3.04688C12.3984 2.73047 12.9922 2.57031 13.7031 2.51562L14.0703 2.48828L14.0547 2.00781L14.043 1.52344L13.9141 1.39844L13.7891 1.26953L10.0469 1.26172C7.99219 1.25781 6.27344 1.26953 6.23047 1.28516ZM8.45312 2.23828C8.49219 2.26562 8.60547 2.44141 8.70703 2.63281L8.89453 2.97266L9.26172 3.17578C9.53516 3.32812 9.63672 3.40625 9.66406 3.48438C9.73828 3.69141 9.66016 3.78906 9.26172 4.01172L8.89453 4.21094L8.69531 4.57812C8.54687 4.84766 8.46875 4.94922 8.39062 4.97656C8.18359 5.05078 8.08594 4.97266 7.86719 4.57812L7.66797 4.21484L7.30078 4.00781C6.90234 3.78516 6.82812 3.6875 6.89844 3.48438C6.92578 3.40625 7.02734 3.32812 7.30078 3.17578L7.66797 2.97656L7.85547 2.63281C8.05859 2.25781 8.125 2.1875 8.28125 2.1875C8.33594 2.1875 8.41406 2.21094 8.45312 2.23828Z" fill="current"/>
<path d="M8.18359 3.32031C8.15234 3.38281 8.07031 3.46484 8.00781 3.49609C7.94141 3.53125 7.89062 3.57422 7.89062 3.59375C7.89062 3.61328 7.94141 3.65625 8.00781 3.69141C8.07031 3.72266 8.15234 3.80469 8.18359 3.86719C8.21875 3.93359 8.26172 3.98438 8.28125 3.98438C8.30078 3.98438 8.34375 3.93359 8.37891 3.86719C8.41016 3.80469 8.49219 3.72266 8.55469 3.69141C8.62109 3.65625 8.67187 3.61328 8.67187 3.59375C8.67187 3.57422 8.62109 3.53125 8.55469 3.49609C8.49219 3.46484 8.41016 3.38281 8.37891 3.32031C8.34375 3.25391 8.30078 3.20312 8.28125 3.20312C8.26172 3.20312 8.21875 3.25391 8.18359 3.32031Z" fill="current"/>
<path d="M13.5352 3.14844C12.8828 3.25 12.4336 3.39062 11.9023 3.66406C10.6641 4.29688 9.76953 5.47656 9.46875 6.875C9.36719 7.33594 9.36719 8.28906 9.46875 8.75C9.875 10.6328 11.3203 12.0508 13.2227 12.4258C13.3789 12.457 13.7383 12.4805 14.0625 12.4805C14.3867 12.4805 14.7461 12.457 14.9023 12.4258C16.8086 12.0508 18.2188 10.668 18.6602 8.74219C18.75 8.34766 18.75 7.28516 18.6602 6.88281C18.4414 5.92969 18.0313 5.17188 17.3672 4.50781C16.7031 3.84375 15.9258 3.42188 14.9922 3.21875C14.7148 3.16016 13.7734 3.11328 13.5352 3.14844ZM14.7109 3.80859C15.5859 3.96094 16.3164 4.33594 16.9297 4.94531C17.0781 5.09375 17.2852 5.33594 17.3906 5.48828C17.6094 5.79688 17.6172 5.76953 17.2305 5.98438L17.043 6.09375L16.9063 5.88672C16.4609 5.21875 15.7266 4.70703 14.9023 4.48828C14.4609 4.37109 13.7031 4.37109 13.2617 4.48828C12.918 4.57812 12.4023 4.8125 12.1289 5C11.1797 5.65234 10.6172 6.80859 10.6758 7.96875C10.7031 8.48828 10.7812 8.78516 11.0117 9.27734C11.582 10.4805 12.7422 11.2109 14.082 11.2109C15.5859 11.2109 16.8672 10.2734 17.3359 8.82812C17.5508 8.16797 17.5469 7.4375 17.3242 6.69531C17.3008 6.62109 17.332 6.60156 17.5781 6.50781C17.7305 6.45312 17.8594 6.40625 17.8672 6.40625C17.8945 6.40625 18.0508 7 18.0859 7.24609C18.2266 8.24609 17.957 9.34375 17.3633 10.1758C17.1602 10.4609 16.6992 10.918 16.4063 11.125C16.1328 11.3203 15.6406 11.5664 15.3125 11.6719C13.3984 12.2969 11.3242 11.4141 10.4219 9.58984C9.44141 7.62109 10.2578 5.18359 12.2266 4.19922C13.0312 3.79688 13.875 3.66406 14.7109 3.80859ZM13.4375 5.94141C13.5469 6.05078 13.6328 6.15234 13.6328 6.16797C13.6328 6.18359 13.5547 6.27344 13.457 6.36719L13.2773 6.54297L14.3281 6.5625L15.375 6.58203L15.6719 6.72656C16.0273 6.90234 16.2461 7.12891 16.418 7.49219C16.5313 7.73047 16.543 7.78906 16.543 8.12891C16.543 8.48047 16.5352 8.51562 16.3984 8.79688C16.2227 9.15234 15.9961 9.37109 15.6328 9.54297L15.3711 9.66797L14.25 9.67969L13.125 9.69141V9.37891V9.0625H14.1328C15.3242 9.0625 15.4102 9.04297 15.6758 8.75C15.9258 8.47266 15.9922 8.18359 15.8906 7.83594C15.8281 7.62109 15.5039 7.29688 15.2891 7.23438C15.1836 7.20312 14.8125 7.1875 14.1953 7.1875H13.2656L13.457 7.38281L13.6523 7.57812L13.4258 7.80469L13.2031 8.02734L12.6953 7.51562C12.0273 6.84375 12.0273 6.90625 12.6836 6.24219C12.957 5.96875 13.1953 5.74219 13.2109 5.74219C13.2266 5.74219 13.332 5.83203 13.4375 5.94141ZM12.5 9.375V9.6875H12.1875H11.875V9.375V9.0625H12.1875H12.5V9.375Z" fill="current"/>
<path d="M4.95703 8.83984C4.83594 8.92188 4.76172 9.07812 4.13281 10.5859L3.4375 12.2461V13.9883V15.7344L2.34375 17.1406C1.55078 18.1562 1.25 18.5742 1.25 18.6484V18.75H4.28906H7.33203L7.62891 18.3008C7.82812 18.0039 7.95703 17.8477 8.01562 17.832C8.06641 17.8203 8.67187 17.6992 9.36328 17.5586C10.0586 17.4219 10.6641 17.2852 10.7109 17.2578C10.7852 17.2148 10.4023 17.2031 8.45703 17.1875L6.11328 17.168L5.92578 17.0742C5.67969 16.9531 5.44531 16.6797 5.37109 16.4336C5.32031 16.2656 5.3125 15.6992 5.3125 12.4922V8.75H5.19922C5.14062 8.75 5.03125 8.78906 4.95703 8.83984Z" fill="current"/>
<path d="M5.94531 15.4883L5.95703 16.2891L6.08594 16.4141L6.21094 16.543H10H13.7891L13.9141 16.4141L14.043 16.2891L14.0547 15.4883L14.0664 14.6875H10H5.93359L5.94531 15.4883ZM10.9375 15.625V15.9375H10.1562H9.375V15.625V15.3125H10.1562H10.9375V15.625Z" fill="current"/>
</svg>
