<svg width="20" height="20" viewBox="0 0 20 20" fill="none" xmlns="http://www.w3.org/2000/svg">
<g clip-path="url(#clip0_28_1181)">
<path d="M9.33387 0.83782C9.037 0.89569 8.68153 1.02952 8.38856 1.18504C8.22059 1.27546 7.162 2.23394 4.17372 4.99725C-0.255972 9.08796 0.0057465 8.82031 0.00184025 9.31945C0.00184025 9.64858 0.103403 9.85836 0.372934 10.0935C0.712778 10.3864 1.2245 10.4479 1.64247 10.249C1.7909 10.1767 2.75575 9.30498 5.68543 6.58869C7.8534 4.58131 9.59559 2.98987 9.67762 2.95009C9.75965 2.91392 9.89637 2.88137 9.98231 2.88137C10.0682 2.88137 10.205 2.91392 10.287 2.95009C10.369 2.98987 12.1112 4.58131 14.2792 6.58869C17.2089 9.30498 18.1737 10.1767 18.3222 10.249C18.7401 10.4479 19.2518 10.3864 19.5917 10.0935C19.8534 9.8656 19.9628 9.64858 19.9628 9.33753C19.9628 8.84925 19.9979 8.89265 18.2206 7.23973L16.6229 5.75318V4.12196C16.6229 3.04051 16.6073 2.42202 16.58 2.29543C16.4628 1.7963 16.0253 1.47078 15.4706 1.47078C15.0097 1.47078 14.6347 1.69141 14.4276 2.08203C14.3456 2.23394 14.3378 2.30628 14.3261 2.92839L14.3104 3.61198L13.0565 2.45819C11.7675 1.27908 11.619 1.16334 11.1151 0.975262C10.6073 0.787183 9.86903 0.729313 9.33387 0.83782Z" fill="current"/>
<path d="M9.78699 4.94661C9.6698 4.99002 2.89246 11.2473 2.81042 11.3883C2.76355 11.4715 2.75574 11.8694 2.75574 13.8912C2.75574 15.4863 2.77136 16.3615 2.79871 16.4881C2.91199 16.9909 3.34558 17.5334 3.83386 17.7721C4.29871 18 4.30652 18 6.29871 18H8.1073V15.649V13.298H9.9823H11.8573V15.649V18H13.6659C15.6581 18 15.6659 18 16.1307 17.7721C16.619 17.5334 17.0526 16.9909 17.1659 16.4881C17.1932 16.3615 17.2089 15.4863 17.2089 13.8912C17.2089 11.8694 17.201 11.4715 17.1542 11.3883C17.0643 11.2364 10.2909 4.9864 10.1659 4.943C10.0331 4.8996 9.91589 4.8996 9.78699 4.94661Z" fill="current"/>
</g>
<defs>
<clipPath id="clip0_28_1181">
<rect width="20" height="20" fill="current"/>
</clipPath>
</defs>
</svg>
