<svg width="20" height="20" viewBox="0 0 20 20" fill="none" xmlns="http://www.w3.org/2000/svg">
<path d="M7.85156 2.73828C6.34766 2.98828 5.14844 4.11328 4.73828 5.65625C4.60547 6.15625 4.58984 7.03125 4.70312 7.51953C4.81641 8.02734 5.07422 8.58594 5.36719 8.98437C5.66406 9.3789 6.26953 9.89062 6.71875 10.1172L6.89453 10.207L5.11719 10.8008C4.14062 11.1289 3.23437 11.4492 3.10547 11.5156C2.25781 11.9414 1.61719 12.7344 1.35937 13.6719C1.27344 13.9844 1.26953 14.0703 1.26953 15.2148V16.4258L1.375 16.625C1.48437 16.832 1.71484 17.0625 1.90625 17.1641C2.17187 17.3008 2.44531 17.3086 7.37891 17.2969L12.2344 17.2852L11.9687 17.1016C11.207 16.582 10.5391 15.707 10.2187 14.8125C9.98437 14.1523 9.89062 13.1562 10 12.4727C10.0977 11.875 10.3984 11.0977 10.7148 10.6367L10.8516 10.4336L10.5898 10.3477C10.4492 10.3008 10.3164 10.25 10.3008 10.2344C10.2852 10.2187 10.3828 10.1406 10.5195 10.0625C11.3633 9.5664 12.0391 8.69531 12.3281 7.71484C12.4687 7.24219 12.5039 6.35156 12.4062 5.86328C12.1172 4.4375 11.1836 3.36719 9.83203 2.90625C9.26562 2.71094 8.4375 2.64453 7.85156 2.73828Z" fill="current"/>
<path d="M14.1406 9.16406C13.1992 9.33594 12.5703 9.625 11.9414 10.168C11.4687 10.5781 10.9961 11.2813 10.7852 11.9023C10.4492 12.8984 10.5117 14.0039 10.9531 14.9453C11.1875 15.4336 11.4023 15.7461 11.7734 16.1172C12.2812 16.625 12.8438 16.9531 13.5742 17.1719C13.8984 17.2695 13.9805 17.2813 14.6289 17.2813C15.25 17.2852 15.3711 17.2734 15.6641 17.1953C16.4297 16.9844 17.0469 16.6211 17.5781 16.0664C18.1133 15.5117 18.4258 14.957 18.6211 14.2266C18.7109 13.8945 18.7227 13.7695 18.7227 13.2227C18.7227 12.6719 18.7109 12.5508 18.6211 12.2109C18.3047 11.0273 17.4844 10.0391 16.3867 9.52734C15.8477 9.27344 15.418 9.17578 14.7852 9.16016C14.4844 9.15234 14.1953 9.15234 14.1406 9.16406ZM15.3281 10.1211C15.9492 10.207 16.4727 10.457 16.8164 10.8281C17.1602 11.1992 17.1523 11.1445 17.1406 13.3047L17.1289 15.1758L17.0117 15.3867C16.7969 15.7773 16.3359 16.0859 15.6953 16.2578C15.4102 16.3359 15.2852 16.3477 14.6484 16.3438C14.0313 16.3438 13.8789 16.332 13.6133 16.2578C12.957 16.0781 12.4688 15.7422 12.2617 15.3242L12.168 15.1367V13.2422V11.3477L12.2773 11.1289C12.6641 10.3359 13.918 9.92188 15.3281 10.1211Z" fill="current"/>
<path d="M13.9453 10.7578C13.3555 10.8828 12.9961 11.0898 12.8555 11.3828C12.7773 11.5352 12.7734 11.5781 12.8125 11.6953C12.9102 12 13.3242 12.2812 13.8555 12.4062C14.1758 12.4844 14.957 12.4961 15.293 12.4258C15.9063 12.3047 16.3672 12.0469 16.4844 11.7617C16.6367 11.3906 16.2578 10.9922 15.5664 10.8008C15.2422 10.7109 14.2852 10.6875 13.9453 10.7578Z" fill="current"/>
<path d="M12.7734 12.9375C12.7734 13.4453 12.9219 13.6641 13.4102 13.8867C14.0859 14.1992 15.2187 14.1992 15.918 13.8867C16.3711 13.6875 16.5234 13.4492 16.5234 12.957V12.625L16.2812 12.7539C15.3945 13.2227 13.875 13.2227 13.0195 12.7539L12.7734 12.6172V12.9375Z" fill="current"/>
<path d="M12.7734 14.5938C12.7734 14.9883 12.832 15.1406 13.0469 15.3125C13.4258 15.6133 13.9453 15.7539 14.668 15.7578C15.3437 15.7578 15.8594 15.6172 16.2422 15.3242C16.4727 15.1484 16.5234 15.0234 16.5234 14.625V14.2656L16.2227 14.418C15.2773 14.8945 13.8203 14.8633 12.9414 14.3516L12.7734 14.2539V14.5938Z" fill="current"/>
</svg>
