<svg width="20" height="20" viewBox="0 0 20 20" fill="none" xmlns="http://www.w3.org/2000/svg">
<path d="M7.875 2.30859C7.27344 2.38672 6.57812 2.71875 6.07812 3.17187C5.47266 3.71875 4.90625 4.6914 4.69141 5.54687C4.17578 7.62109 5.13281 10.1172 6.76562 10.9414C7.01562 11.0664 7.01172 11.0586 6.94922 11.4375L6.90625 11.7031L4.82812 12.5586C3.6875 13.0273 2.68359 13.457 2.59766 13.5078C2.38672 13.6367 2.20703 13.8125 2.07031 14.0234C1.94141 14.2266 1.25 16.082 1.25 16.2305C1.25 16.3984 1.35156 16.5859 1.50781 16.7031L1.65234 16.8164L6.92188 16.8281L12.1914 16.8359L12.0352 16.6055C11.7109 16.1289 11.5195 15.6797 11.4062 15.1211C11.2578 14.3789 11.3359 13.5117 11.6133 12.8516C11.6836 12.6914 11.7383 12.543 11.7383 12.5234C11.7383 12.5078 11.3086 12.3125 10.7812 12.0937L9.82422 11.6992L9.77734 11.4258C9.75391 11.2734 9.73047 11.1328 9.73047 11.1094C9.72656 11.0859 9.83203 11.0078 9.96094 10.9414C10.8164 10.4844 11.5664 9.53906 11.9141 8.47656C12.8438 5.6289 11.2578 2.60156 8.67578 2.30469C8.29688 2.26172 8.25391 2.26172 7.875 2.30859ZM6.28125 5.30078C6.32812 5.34375 6.375 5.46484 6.40234 5.60547C6.46094 5.91406 6.60938 6.12109 6.87109 6.25781C7.0625 6.35937 7.11328 6.36719 7.53516 6.36719C8.13281 6.36719 8.44141 6.29687 8.94141 6.04687C9.32812 5.85547 9.375 5.83984 9.62891 5.84375C9.89062 5.84375 9.93359 5.85937 10.7227 6.23828C11.6719 6.69141 11.6016 6.60156 11.5234 7.28125C11.3281 8.94531 10.4961 10.1445 9.23828 10.5703C8.83594 10.707 8.21094 10.7422 7.77344 10.6484C7.40625 10.5742 6.85547 10.3008 6.53516 10.043C5.70703 9.36719 5.19141 8.10547 5.1875 6.75781C5.18359 6.27734 5.22656 5.96875 5.35938 5.51562L5.44141 5.23437H5.82031C6.12891 5.23437 6.21875 5.24609 6.28125 5.30078ZM8.16797 11.3516C8.30859 11.3633 8.57812 11.3555 8.76562 11.332C8.95703 11.3047 9.11719 11.2891 9.125 11.2969C9.13281 11.3047 9.16016 11.4766 9.18359 11.6758C9.25781 12.2227 9.15625 12.5039 8.82422 12.6914C8.47656 12.8867 8.01953 12.832 7.75 12.5625C7.52344 12.3359 7.47656 12.1523 7.53906 11.6992C7.56641 11.5039 7.59766 11.332 7.60547 11.3125C7.61719 11.2969 7.69141 11.2891 7.76953 11.3047C7.84766 11.3164 8.02734 11.3359 8.16797 11.3516ZM5.21875 15.0117C5.33984 15.1523 5.33984 15.2891 5.21484 15.4102L5.12109 15.5078H4.23438C3.375 15.5078 3.34375 15.5039 3.25391 15.4219C3.15234 15.3281 3.13281 15.1328 3.21484 15.0312C3.32422 14.8945 3.40625 14.8828 4.26953 14.8945L5.125 14.9023L5.21875 15.0117Z" fill="current"/>
<path d="M6.93358 7.01172C6.73436 7.20703 6.87108 7.5 7.15624 7.5C7.3203 7.5 7.46093 7.35938 7.46093 7.19922C7.46093 7.06641 7.29686 6.91406 7.14843 6.91406C7.07421 6.91406 6.99218 6.94922 6.93358 7.01172Z" fill="current"/>
<path d="M9.37503 6.99218C9.2344 7.13281 9.27737 7.39062 9.45315 7.48046C9.58206 7.54687 9.78128 7.49609 9.84378 7.38281C10.0078 7.07421 9.61722 6.74999 9.37503 6.99218Z" fill="current"/>
<path d="M7.74219 8.86719C7.28516 8.98828 7.10938 9.125 7.10938 9.35547C7.10938 9.47656 7.26953 9.64844 7.37891 9.64844C7.42187 9.64844 7.58594 9.59375 7.74609 9.53125C8.16406 9.36328 8.51953 9.36719 9.00781 9.53906C9.35547 9.66016 9.36719 9.66406 9.46875 9.59766C9.78906 9.38672 9.60937 9.04688 9.08594 8.88281C8.76562 8.78125 8.08594 8.77344 7.74219 8.86719Z" fill="current"/>
<path d="M14.8047 10.9805C13.1953 11.2266 11.9531 12.707 11.9531 14.375C11.9531 15.2617 12.3086 16.0938 12.9688 16.7539C13.5938 17.3789 14.3867 17.7031 15.293 17.7031C16.2383 17.7031 17.0273 17.3945 17.7031 16.7617C19.4219 15.1562 18.9414 12.2891 16.7852 11.2695C16.2227 11 15.4258 10.8867 14.8047 10.9805ZM15.4805 12.582C15.6523 12.6602 15.6641 12.75 15.6641 13.918V15.0195L15.8438 14.8125C16 14.6328 16.0391 14.6094 16.1719 14.6094C16.2891 14.6094 16.3398 14.6328 16.4023 14.7109C16.5586 14.9062 16.5391 14.9453 15.9453 15.6836C15.6797 16.0156 15.5234 16.1328 15.332 16.1328C15.1445 16.1328 15.0195 16.0273 14.6094 15.5078C14.1836 14.9727 14.1367 14.8516 14.3086 14.6992C14.5039 14.5234 14.6133 14.5508 14.8711 14.8359L15.0391 15.0195V13.8945C15.0391 13.1719 15.0547 12.7422 15.082 12.6914C15.1523 12.5586 15.3242 12.5117 15.4805 12.582Z" fill="current"/>
</svg>
