<svg width="20" height="20" viewBox="0 0 20 20" fill="none" xmlns="http://www.w3.org/2000/svg">
<g clip-path="url(#clip0_55_141)">
<path d="M6.13281 1.01172C5.26172 1.19922 4.49609 1.71875 4.00781 2.45312C3.53125 3.17578 3.35937 3.98437 3.47656 4.96094C3.53906 5.45312 3.52344 5.42969 3.73828 5.36719C3.83594 5.33594 4 5.3125 4.10156 5.3125C4.46484 5.3125 4.64062 5.0625 4.6875 4.48047C4.73828 3.85156 4.94141 3.4414 5.34375 3.14453C5.64453 2.92187 5.90625 2.83984 6.30859 2.83594C6.72656 2.83203 6.96094 2.90234 7.28125 3.125L7.5 3.27734L7.71875 3.125C8.03906 2.90234 8.27344 2.83203 8.69141 2.83594C9.09375 2.83984 9.35547 2.92187 9.65625 3.14453C10.0586 3.4414 10.2617 3.85156 10.3125 4.47656C10.3437 4.90625 10.4023 5.05469 10.5859 5.21094C10.6797 5.28906 10.75 5.3125 10.8945 5.3125C10.9961 5.3125 11.1641 5.33594 11.2617 5.36719C11.4766 5.43359 11.4648 5.45703 11.5273 4.91797C11.582 4.42187 11.5547 3.86719 11.4492 3.46484C11.1484 2.32031 10.1992 1.36719 9.04297 1.04687C8.76172 0.968748 8.625 0.960936 7.59766 0.953123C6.61719 0.941404 6.42187 0.949217 6.13281 1.01172Z" fill="current"/>
<path d="M13.8477 1.34766C13.7539 1.4375 13.75 1.46875 13.75 1.875C13.75 2.28125 13.7539 2.3125 13.8477 2.40234C13.9258 2.48438 13.9805 2.5 14.1602 2.5H14.375V2.97656V3.45703H15H15.625V2.97656V2.5H15.8398C16.0195 2.5 16.0742 2.48438 16.1523 2.40234C16.2461 2.3125 16.25 2.28125 16.25 1.875C16.25 1.46875 16.2461 1.4375 16.1523 1.34766L16.0586 1.25H15H13.9414L13.8477 1.34766Z" fill="current"/>
<path d="M6.05469 3.47266C5.77734 3.5625 5.53906 3.76562 5.41016 4.02344C5.36719 4.10547 5.32812 4.30859 5.3125 4.55078C5.29297 4.76562 5.25391 5.01562 5.21875 5.10938C5.14062 5.32422 4.94922 5.60156 4.80078 5.71094C4.69531 5.79297 4.6875 5.8125 4.6875 6.07812C4.6875 7.18359 5.12109 8.19141 5.92187 8.9375C6.48828 9.46875 6.91797 9.66797 7.5 9.66797C8.08594 9.66797 8.51172 9.46875 9.08594 8.93359C9.82812 8.23828 10.2461 7.32812 10.3008 6.27734L10.3242 5.81641L10.1875 5.70312C10.0273 5.57031 9.82031 5.26172 9.76172 5.07031C9.73828 5 9.70703 4.76562 9.69141 4.55078C9.65625 4.11328 9.58203 3.92578 9.36719 3.72656C9.14453 3.51562 8.99609 3.45703 8.67187 3.45703C8.30078 3.45703 8.19531 3.51172 7.80469 3.89844L7.5 4.19922L7.19922 3.89844C7.03125 3.73438 6.83203 3.57031 6.75781 3.53516C6.60937 3.45703 6.20312 3.42188 6.05469 3.47266ZM6.46484 5.41016C6.66016 5.60156 6.52344 5.9375 6.25 5.9375C6.08984 5.9375 5.9375 5.78516 5.9375 5.625C5.9375 5.46484 6.08984 5.3125 6.25 5.3125C6.32422 5.3125 6.40625 5.34766 6.46484 5.41016ZM8.96484 5.41016C9.16016 5.60156 9.02344 5.9375 8.75 5.9375C8.58984 5.9375 8.4375 5.78516 8.4375 5.625C8.4375 5.46484 8.58984 5.3125 8.75 5.3125C8.82422 5.3125 8.90625 5.34766 8.96484 5.41016ZM6.93359 7.51172C7.02734 7.66406 7.30859 7.8125 7.5 7.8125C7.75 7.80859 8.06641 7.60938 8.13672 7.41016C8.14844 7.37891 8.24219 7.40625 8.42969 7.49609C8.58594 7.57031 8.71094 7.64453 8.71094 7.65625C8.71094 7.71094 8.44922 8.04297 8.33203 8.14062C8.09375 8.33984 7.86328 8.41797 7.5 8.41797C7.22266 8.41797 7.13281 8.40234 6.95312 8.31641C6.83594 8.25781 6.68359 8.16016 6.61719 8.09766C6.48828 7.97656 6.26562 7.66406 6.29297 7.64062C6.33203 7.60547 6.78125 7.38672 6.81641 7.38672C6.83984 7.38672 6.89062 7.44141 6.93359 7.51172Z" fill="current"/>
<path d="M18.4531 3.80469C18.3828 3.83594 18.207 3.97266 18.0625 4.11328L17.793 4.36719L17.9102 4.45703C18.1328 4.63281 18.3711 4.86328 18.5547 5.08594L18.7422 5.30469L19.0039 5.04688C19.1484 4.90234 19.293 4.73047 19.3203 4.66016C19.543 4.12891 18.9805 3.57812 18.4531 3.80469Z" fill="current"/>
<path d="M14.3945 4.10156C13.8711 4.18359 13.1484 4.46875 12.7227 4.76172C12.625 4.82812 12.4531 4.96875 12.3359 5.07422C12.1367 5.25781 12.1211 5.28515 12.0586 5.57812C11.9922 5.875 11.9922 5.89453 12.0625 6.05078L12.1367 6.21094L12.3164 5.98047C13.0703 5.01953 14.3633 4.53125 15.582 4.74219C16.918 4.97656 17.9688 5.94922 18.332 7.28515C18.3984 7.53125 18.4141 7.70703 18.4141 8.125C18.4141 8.54297 18.3984 8.71875 18.332 8.96484C17.9961 10.207 17.0781 11.125 15.8594 11.4492C15.3477 11.5859 14.6641 11.5898 14.1797 11.457C14.0898 11.4336 14.0898 11.4414 14.2266 11.5937C14.3086 11.6836 14.4141 11.8398 14.4688 11.9453C14.5234 12.0508 14.5938 12.1484 14.6289 12.1641C14.8516 12.25 15.793 12.1406 16.2734 11.9766C16.8828 11.7695 17.3164 11.5078 17.7812 11.0625C18.7773 10.1094 19.2227 8.8125 19.0039 7.48047C18.7461 5.8789 17.5508 4.58594 15.957 4.17578C15.5977 4.08594 14.7656 4.04687 14.3945 4.10156Z" fill="current"/>
<path d="M14.2578 5.41406C13.7656 5.54688 13.3008 5.83203 12.9453 6.22266C12.6484 6.54688 12.4805 6.82812 12.332 7.25391C12.2187 7.57422 12.2109 7.63281 12.2109 8.125C12.2109 8.58984 12.2266 8.69141 12.3164 8.96484C12.4648 9.41406 12.6719 9.74219 13.0273 10.0977C13.3828 10.4531 13.7109 10.6602 14.1602 10.8086C14.4336 10.8984 14.5352 10.9141 15 10.9141C15.4922 10.9141 15.5508 10.9062 15.8711 10.793C16.3008 10.6406 16.5859 10.4727 16.9023 10.1797C17.332 9.78125 17.6914 9.13672 17.7578 8.64062L17.7852 8.4375H16.2344H14.6875V6.89453V5.35156L14.582 5.35547C14.5195 5.35547 14.375 5.38281 14.2578 5.41406Z" fill="current"/>
<path d="M15.3125 6.57812V7.8125H16.5469H17.7852L17.7578 7.60938C17.6172 6.56641 16.5547 5.50781 15.5117 5.36719L15.3125 5.33984V6.57812Z" fill="current"/>
<path d="M3.80859 5.99219C3.74219 6.01953 3.64062 6.10156 3.58203 6.16797C3.25 6.5625 3.54297 7.1875 4.06641 7.1875C4.1875 7.1875 4.1875 7.18359 4.16016 7.03906C4.09766 6.71094 4.0625 6.41406 4.0625 6.17969C4.0625 5.91016 4.03516 5.89062 3.80859 5.99219Z" fill="current"/>
<path d="M10.9375 6.17578C10.9375 6.41406 10.9023 6.71094 10.8398 7.04688L10.8086 7.19922L10.9961 7.17969C11.1953 7.15625 11.332 7.07422 11.4609 6.89844C11.5742 6.74609 11.5742 6.37891 11.4609 6.22656C11.3516 6.07422 11.2148 5.98047 11.0664 5.95312L10.9375 5.92578V6.17578Z" fill="current"/>
<path d="M11.4258 7.69531C11.3398 7.73828 11.1953 7.78125 11.1055 7.79688L10.9375 7.82031V8.10547C10.9375 9.06641 11.3086 10.0742 11.9102 10.75L12.0781 10.9375H12.5508H13.0273L12.8906 10.832C12.6562 10.6562 12.2969 10.2656 12.125 9.99609C11.7383 9.39844 11.5859 8.875 11.582 8.13281C11.582 7.85156 11.582 7.61719 11.582 7.62109C11.582 7.62109 11.5117 7.65625 11.4258 7.69531Z" fill="current"/>
<path d="M6.35156 10.0742C6.34375 10.0859 6.24609 10.375 6.13281 10.7148L5.92969 11.3281L5.94531 12.1016L5.95703 12.875L6.10156 13.1719C6.35156 13.6758 6.8125 14 7.35156 14.0508C7.69141 14.082 7.79687 14.0508 7.83203 13.918C7.86328 13.7812 8.02344 13.5703 8.13672 13.5078C8.18359 13.4844 8.34766 13.4531 8.49609 13.4414L8.76953 13.418L8.90625 13.1445L9.04297 12.875L9.05469 12.1016L9.07031 11.3281L8.86719 10.7148C8.75391 10.375 8.65625 10.0859 8.64844 10.0742C8.64062 10.0625 8.48047 10.1055 8.29297 10.1719C7.98828 10.2773 7.89844 10.2891 7.5 10.2891C7.10156 10.2891 7.01172 10.2773 6.70703 10.1719C6.51953 10.1055 6.35937 10.0625 6.35156 10.0742Z" fill="current"/>
<path d="M1.89453 11.5977C1.54297 11.6836 1.21484 11.9531 1.05859 12.2852C0.8125 12.8086 0.976562 13.9922 1.43359 14.9648L1.60937 15.3438L1.40625 15.6445C1.07422 16.1406 0.9375 16.5234 0.9375 16.9727C0.9375 17.9336 1.66406 18.8242 2.60937 19.0195C2.75 19.0469 3.80078 19.0625 5.84375 19.0625H8.87109L8.96484 18.9648C9.05859 18.875 9.0625 18.8438 9.0625 18.4375C9.0625 18.0312 9.05859 18 8.96484 17.9102C8.875 17.8164 8.85156 17.8125 8.33984 17.8125H7.8125V17.5664C7.8125 17.3164 7.74609 17.1875 7.625 17.1875C7.59766 17.1875 7.29687 17.3281 6.95312 17.5L6.32812 17.8125H4.88281H3.4375V14.6875V11.5625L2.72656 11.5664C2.33203 11.5703 1.96094 11.582 1.89453 11.5977Z" fill="current"/>
<path d="M4.0625 14.375V17.1875H5.11719H6.17187L6.76562 16.8906C7.23828 16.6523 7.40625 16.5898 7.58594 16.5703L7.8125 16.5508V15.6094V14.668L7.42969 14.6641C7.15234 14.6602 6.98828 14.6367 6.82031 14.5742C6.25391 14.375 5.78906 13.9688 5.54687 13.457C5.35547 13.0586 5.3125 12.8164 5.3125 12.1211V11.5625H4.6875H4.0625V14.375Z" fill="current"/>
<path d="M9.67969 12.1875L9.66797 12.8125H10.3047H10.9375V12.1875V11.5625H10.3125H9.69141L9.67969 12.1875Z" fill="current"/>
<path d="M11.5625 12.4922V13.4297L11.9883 13.4453C12.4492 13.457 12.5391 13.4922 12.7109 13.7266C12.793 13.832 12.793 13.8789 12.8047 16.1367L12.8125 18.4375H12.5H12.1875V16.25V14.0625H11.8789H11.5703L11.5469 14.1992C11.5156 14.3672 11.3516 14.5664 11.1836 14.6328C11.0938 14.6719 10.8516 14.6875 10.3125 14.6875C9.77344 14.6875 9.53125 14.6719 9.44141 14.6328C9.27344 14.5664 9.10938 14.3672 9.07812 14.1992L9.05469 14.0625H8.74609H8.4375V15.625V17.1875H8.65625C8.99609 17.1875 9.17578 17.2578 9.39453 17.4805C9.65234 17.7344 9.6875 17.8672 9.6875 18.5313V19.0625H14.6875H19.6875V18.75V18.4375H16.582H13.4766L13.6211 18.25C13.9883 17.7734 14.1406 17.125 14.0195 16.5547C13.957 16.2656 13.832 15.9961 13.5938 15.6445L13.3906 15.3438L13.5664 14.9648C14.0312 13.9766 14.1914 12.7891 13.9336 12.2813C13.7852 11.9883 13.668 11.8633 13.3906 11.7148L13.1445 11.582L12.3555 11.5703L11.5625 11.5547V12.4922Z" fill="current"/>
<path d="M9.6875 13.75V14.0625H10.3125H10.9375V13.75V13.4375H10.3125H9.6875V13.75Z" fill="current"/>
</g>
<defs>
<clipPath id="clip0_55_141">
<rect width="20" height="20" fill="current"/>
</clipPath>
</defs>
</svg>
