<svg width="20" height="20" viewBox="0 0 20 20" fill="none" xmlns="http://www.w3.org/2000/svg">
<path d="M11.4219 0.0546875C10.8555 0.183594 10.418 0.4375 10.0234 0.863281C9.74609 1.16406 9.49219 1.63672 9.41406 1.99219C9.39062 2.10938 9.35938 2.23828 9.34766 2.27344C9.33203 2.33594 9.26562 2.34375 8.69922 2.34375C7.98438 2.34375 7.86328 2.375 7.70703 2.61328C7.62109 2.73828 7.61719 2.78516 7.61719 3.44141C7.61719 3.84375 7.63281 4.14062 7.65234 4.14062C7.67188 4.14062 7.84375 4.10547 8.02734 4.05859C8.58594 3.92578 9.16016 3.86719 9.90234 3.86719C10.7812 3.86719 11.0938 3.90234 12.1406 4.12891L12.2266 4.14844V3.47266C12.2266 2.72266 12.1992 2.60547 11.9805 2.44531C11.8789 2.37109 11.8047 2.36328 11.207 2.35156C10.4531 2.33594 10.4805 2.35156 10.6445 2C10.9414 1.36328 11.7227 1.02344 12.3828 1.25C13.0117 1.46484 13.3242 1.89844 13.3984 2.66016C13.4297 2.96875 13.4648 3.12109 13.5508 3.30859C13.6914 3.60547 13.9922 3.93359 14.25 4.07422C14.6172 4.27344 14.8008 4.29688 16.0078 4.29688C17.0781 4.29688 17.125 4.29297 17.2695 4.21094C17.4297 4.12109 17.5781 3.88281 17.5781 3.71094C17.5781 3.53906 17.4297 3.30078 17.2695 3.21094C17.125 3.12891 17.0742 3.125 16.0586 3.125C14.8867 3.125 14.7852 3.10938 14.6562 2.89062C14.6055 2.8125 14.5742 2.66016 14.5586 2.44922C14.4531 1.10156 13.3828 0.0625 12.0508 0.015625C11.8047 0.0078125 11.5703 0.0195312 11.4219 0.0546875Z" fill="current"/>
<path d="M8.82031 5.10157C6.03125 5.53516 3.73437 7.45704 2.82812 10.1094C2.19922 11.9453 2.32812 14.0117 3.17968 15.75C4.68359 18.8203 8.04297 20.5117 11.3477 19.8594C15.0469 19.1328 17.6641 15.7148 17.3828 11.9883C17.1133 8.44532 14.4883 5.6211 10.9883 5.09766C10.4883 5.02344 9.29687 5.02344 8.82031 5.10157ZM10.9258 7.30079C12 7.50782 12.9531 8.02735 13.7187 8.82032C14.3008 9.42579 14.7148 10.1016 14.9609 10.8555C15.1523 11.4492 15.2109 11.8242 15.2109 12.5195C15.207 13.2188 15.1328 13.668 14.918 14.2852C14.3711 15.8359 13.125 17.0469 11.5469 17.5586C10.9219 17.7578 10.6836 17.793 9.88281 17.7891C9.28515 17.7891 9.09765 17.7734 8.80468 17.7031C8.10547 17.5391 7.4414 17.25 6.8789 16.8633C6.5 16.6016 5.82031 15.9258 5.5625 15.5469C5.16015 14.957 4.85547 14.2422 4.69922 13.5156C4.60156 13.0469 4.60156 11.9492 4.70312 11.4883C5.02343 10.0156 5.79687 8.87891 7.04297 8.0586C7.74218 7.59376 8.55859 7.31251 9.47265 7.21094C9.77343 7.17969 10.543 7.22657 10.9258 7.30079Z" fill="current"/>
<path d="M9.39453 8.40234C8.80078 8.47656 8.14062 8.72656 7.58984 9.08594C7.26953 9.29688 6.68359 9.89062 6.46484 10.2266C5.78515 11.2852 5.60156 12.5703 5.96484 13.7305C6.5039 15.4531 8.10937 16.6406 9.89453 16.6406C11.0273 16.6406 11.9805 16.25 12.8047 15.4531C13.3125 14.9648 13.6445 14.4219 13.8594 13.75C14.3867 12.0898 13.8047 10.2695 12.4062 9.21094C11.5469 8.5625 10.4609 8.26953 9.39453 8.40234ZM10.2305 9.44141C10.3867 9.5625 10.4727 9.70312 10.4961 9.88281C10.5117 10.0039 10.5391 10.0547 10.5937 10.0703C10.75 10.1094 11.2734 10.3828 11.3945 10.4844C11.6211 10.6719 11.6641 11.0391 11.4883 11.2852C11.3867 11.4258 11.1016 11.543 10.9492 11.5078C10.8906 11.4922 10.6914 11.4062 10.5117 11.3164C10.2344 11.1758 10.1484 11.1523 9.94531 11.1523C9.78125 11.1523 9.67187 11.1758 9.59765 11.2227C9.47265 11.3047 9.42187 11.4688 9.49609 11.543C9.52734 11.5742 9.80469 11.6953 10.1172 11.8203C10.4297 11.9414 10.7695 12.0859 10.875 12.1367C11.1484 12.2773 11.5039 12.625 11.6328 12.8867C11.7266 13.0781 11.7383 13.1523 11.7383 13.4766C11.7383 13.8164 11.7266 13.8711 11.6133 14.1055C11.5352 14.2578 11.4062 14.4375 11.293 14.543C11.1055 14.7188 10.6836 14.9609 10.5664 14.9609C10.5273 14.9609 10.5078 15 10.5078 15.0703C10.5078 15.2461 10.3477 15.5117 10.1953 15.5938C9.80859 15.7969 9.33594 15.5195 9.33594 15.0859C9.33594 15.0039 9.3164 14.9609 9.27734 14.9609C9.16797 14.9609 8.80859 14.7773 8.5664 14.5977C8.21875 14.3398 8.08594 14.1445 8.08594 13.8906C8.08594 13.5703 8.23437 13.3867 8.54687 13.3164C8.73828 13.2734 8.92187 13.3438 9.13672 13.5352C9.5664 13.9141 10.2148 13.9766 10.5039 13.668C10.6211 13.543 10.6094 13.3867 10.4766 13.2734C10.4141 13.2227 10.0625 13.0586 9.69531 12.9141C8.9375 12.6172 8.71484 12.4805 8.52734 12.2109C8.04297 11.5078 8.33594 10.5195 9.13281 10.1523C9.30469 10.0742 9.33594 10.043 9.33594 9.95312C9.33594 9.49219 9.8789 9.17969 10.2305 9.44141Z" fill="current"/>
</svg>
