<svg width="20" height="20" viewBox="0 0 20 20" fill="none" xmlns="http://www.w3.org/2000/svg">
<g clip-path="url(#clip0_539_6)">
<path d="M10.2734 0.859373C6.54295 1.16406 3.43748 3.62109 2.28513 7.1875C2.20701 7.43359 2.1367 7.64062 2.13279 7.64844C2.12498 7.65234 1.97654 7.4375 1.79685 7.16797C1.61717 6.89844 1.41404 6.625 1.34373 6.5664C0.957009 6.22656 0.332009 6.33984 0.0898217 6.79297C-0.0156471 6.99609 -0.0312721 7.36328 0.0546654 7.53515C0.210915 7.83203 2.03513 10.543 2.1406 10.6328C2.30857 10.7734 2.5117 10.832 2.7617 10.8125C2.96482 10.793 3.04295 10.75 4.42576 9.82031C5.22263 9.28516 5.92576 8.80469 5.98435 8.75391C6.2617 8.52344 6.33982 8.08594 6.16404 7.74609C5.99607 7.41406 5.53904 7.22265 5.18357 7.33984C5.10935 7.36719 4.75388 7.58594 4.39451 7.83203C4.03123 8.07812 3.73045 8.27344 3.72263 8.26953C3.7031 8.24609 3.86717 7.69922 3.98826 7.39453C4.5117 6.0664 5.35545 4.96484 6.48826 4.12109C9.42967 1.92969 13.5547 2.23047 16.1523 4.82422C17.5547 6.22656 18.3203 8.08203 18.3203 10.0781C18.3203 11.3281 18.0625 12.3711 17.4765 13.5156C17.1445 14.1562 16.7929 14.6445 16.2734 15.1836C15.5703 15.9141 15.0156 16.3203 14.1601 16.7383C11.6172 17.9766 8.71092 17.6875 6.43357 15.9687C5.99607 15.6406 5.34763 14.9844 4.98826 14.5078C4.65232 14.0547 4.48435 13.9453 4.15623 13.9453C3.53904 13.9492 3.1367 14.5859 3.41013 15.1211C3.64451 15.5859 4.53904 16.582 5.21482 17.1289C6.22263 17.9492 7.46482 18.5742 8.70701 18.8867C10.1719 19.2539 11.6836 19.2539 13.1445 18.8867C15.3242 18.3359 17.2226 17 18.4726 15.1289C19.1914 14.0547 19.6992 12.7344 19.9101 11.4062C20.0078 10.7773 20.0078 9.30469 19.9101 8.67187C19.4648 5.8164 17.8008 3.39062 15.3242 1.99609C13.8203 1.14844 11.9375 0.72656 10.2734 0.859373Z" fill="current"/>
<path d="M10.4765 5.04297C10.2734 5.14454 10.0898 5.35938 10.0351 5.55469C10.0117 5.64844 9.99997 6.53516 10.0078 7.97657C10.0195 10.0195 10.0273 10.2656 10.0859 10.3711C10.1953 10.5664 12.7656 13.1602 12.9453 13.2539C13.3203 13.4492 13.832 13.3125 14.039 12.957C14.1758 12.7227 14.1992 12.5469 14.125 12.293C14.0664 12.0938 13.9961 12.0117 12.875 10.8711L11.6836 9.66016L11.6718 7.60938L11.6601 5.5586L11.5429 5.3711C11.3164 5.00782 10.8437 4.86329 10.4765 5.04297Z" fill="current"/>
</g>
<defs>
<clipPath id="clip0_539_6">
<rect width="20" height="20" fill="current"/>
</clipPath>
</defs>
</svg>
