<svg width="20" height="20" viewBox="0 0 20 20" fill="none" xmlns="http://www.w3.org/2000/svg">
<g clip-path="url(#clip0_539_27)">
<path d="M8.48438 0.0625C6.71875 0.359375 5.34766 1.74219 5.05859 3.51953C5.01172 3.8125 5 4.26172 5 5.69141V7.5H4.08984C3.41016 7.5 3.125 7.51562 2.95703 7.55859C2.36328 7.71094 1.94922 8.09375 1.75391 8.66406C1.68359 8.87109 1.67969 9.07031 1.67969 13.75C1.67969 18.4297 1.68359 18.6289 1.75391 18.8359C1.94922 19.4062 2.36328 19.7891 2.95703 19.9414C3.29297 20.0312 16.707 20.0312 17.043 19.9414C17.6367 19.7891 18.0508 19.4062 18.2461 18.8359C18.3164 18.6289 18.3203 18.4297 18.3203 13.75C18.3203 9.07031 18.3164 8.87109 18.2461 8.66406C18.0508 8.09375 17.6367 7.71094 17.043 7.55859C16.875 7.51562 16.5898 7.5 15.9102 7.5H15V5.69141C15 4.26172 14.9883 3.8125 14.9414 3.51953C14.6484 1.72266 13.2773 0.351562 11.4805 0.0585938C10.9922 -0.0195312 8.96094 -0.0195312 8.48438 0.0625ZM11.6016 1.78906C12.3438 2.03516 12.9609 2.65234 13.2148 3.39844C13.2969 3.64453 13.3008 3.71094 13.3125 5.57422L13.3242 7.5H10H6.67969V5.67188C6.67969 3.97656 6.68359 3.81641 6.75781 3.53906C6.97656 2.67578 7.66016 1.98828 8.52344 1.75781C8.78125 1.6875 8.92578 1.68359 10.0781 1.69141C11.2656 1.70312 11.3633 1.70703 11.6016 1.78906ZM10.4688 10.9062C11.0781 11.0898 11.5508 11.6367 11.6406 12.2617C11.7227 12.8594 11.4844 13.4375 10.9961 13.8164L10.8203 13.957V15.3164V16.6797H10H9.17969V15.3164V13.957L9.00391 13.8164C8.51562 13.4375 8.27734 12.8594 8.35938 12.2617C8.5 11.2773 9.51953 10.6211 10.4688 10.9062Z" fill="current"/>
</g>
<defs>
<clipPath id="clip0_539_27">
<rect width="20" height="20" fill="current"/>
</clipPath>
</defs>
</svg>
