<svg width="20" height="20" viewBox="0 0 20 20" fill="none" xmlns="http://www.w3.org/2000/svg">
<g clip-path="url(#clip0_539_30)">
<path d="M4.52343 0.859373C3.6289 0.968748 2.76562 1.38281 2.10155 2.02344C1.41015 2.6914 0.972647 3.59375 0.859366 4.57031C0.804679 5.03515 0.808585 11.6133 0.863272 12.0977C0.972647 13.0898 1.44921 14.0547 2.15624 14.7109C2.63671 15.1523 3.33202 15.5391 3.91405 15.6836L4.17577 15.75L4.18749 17.1875L4.19921 18.625L4.3164 18.7969C4.55077 19.125 5.01562 19.2539 5.34765 19.082C5.42187 19.043 6.56249 18.2969 7.8789 17.418L10.2734 15.8203H12.8555C15.2969 15.8203 15.457 15.8164 15.8281 15.7422C17.6094 15.3789 18.9336 13.9219 19.1367 12.0977C19.1914 11.6133 19.1953 5.03515 19.1406 4.57031C18.9844 3.21875 18.2305 2.07031 17.0508 1.3789C16.7578 1.20703 16.2851 1.01953 15.9062 0.925779C15.5664 0.843748 15.5391 0.843748 10.1758 0.835936C7.21093 0.832029 4.66796 0.843748 4.52343 0.859373ZM15.3711 5.92578C15.457 5.96875 15.5664 6.05078 15.6133 6.10156C15.9062 6.41406 15.8789 6.97656 15.5625 7.27344C15.3047 7.51562 15.6523 7.5 9.99999 7.5C5.42577 7.5 4.82421 7.49219 4.6953 7.4375C4.38671 7.30859 4.17968 7.00781 4.17968 6.67969C4.17968 6.26953 4.39843 5.98047 4.80468 5.85547C4.85937 5.83984 7.22265 5.82812 10.0586 5.83203L15.2148 5.83984L15.3711 5.92578ZM13.6641 9.23828C14.2578 9.48828 14.3359 10.3047 13.7969 10.6836L13.625 10.8008L10.0859 10.8125C7.64062 10.8203 6.49999 10.8125 6.39843 10.7812C5.82421 10.6172 5.65234 9.80469 6.10155 9.38672C6.32812 9.17578 6.17968 9.18359 9.99218 9.17969C13.0898 9.17969 13.5351 9.1875 13.6641 9.23828Z" fill="current"/>
</g>
<defs>
<clipPath id="clip0_539_30">
<rect width="20" height="20" fill="current"/>
</clipPath>
</defs>
</svg>
