<svg width="20" height="20" viewBox="0 0 20 20" fill="none" xmlns="http://www.w3.org/2000/svg">
<g clip-path="url(#clip0_55_120)">
<path d="M4.52344 0.859375C3.62891 0.96875 2.76562 1.38281 2.10156 2.02344C1.41016 2.69141 0.972656 3.59375 0.859375 4.57031C0.804687 5.03516 0.808593 11.6133 0.863281 12.0977C0.972656 13.0898 1.44922 14.0547 2.15625 14.7109C2.63672 15.1523 3.33203 15.5391 3.91406 15.6836L4.17578 15.75L4.1875 17.1875L4.19922 18.625L4.31641 18.7969C4.55078 19.125 5.01562 19.2539 5.34766 19.082C5.42187 19.043 6.5625 18.2969 7.87891 17.418L10.2734 15.8203H12.8555C15.2969 15.8203 15.457 15.8164 15.8281 15.7422C17.6094 15.3789 18.9336 13.9219 19.1367 12.0977C19.1914 11.6133 19.1953 5.03516 19.1406 4.57031C18.9844 3.21875 18.2305 2.07031 17.0508 1.37891C16.7578 1.20703 16.2852 1.01953 15.9062 0.925781C15.5664 0.84375 15.5391 0.84375 10.1758 0.835938C7.21094 0.832031 4.66797 0.84375 4.52344 0.859375ZM15.3711 5.92578C15.457 5.96875 15.5664 6.05078 15.6133 6.10156C15.9062 6.41406 15.8789 6.97656 15.5625 7.27344C15.3047 7.51562 15.6523 7.5 10 7.5C5.42578 7.5 4.82422 7.49219 4.69531 7.4375C4.38672 7.30859 4.17969 7.00781 4.17969 6.67969C4.17969 6.26953 4.39844 5.98047 4.80469 5.85547C4.85937 5.83984 7.22266 5.82812 10.0586 5.83203L15.2148 5.83984L15.3711 5.92578ZM13.6641 9.23828C14.2578 9.48828 14.3359 10.3047 13.7969 10.6836L13.625 10.8008L10.0859 10.8125C7.64062 10.8203 6.5 10.8125 6.39844 10.7812C5.82422 10.6172 5.65234 9.80469 6.10156 9.38672C6.32812 9.17578 6.17969 9.18359 9.99219 9.17969C13.0898 9.17969 13.5352 9.1875 13.6641 9.23828Z" fill="current"/>
</g>
<defs>
<clipPath id="clip0_55_120">
<rect width="20" height="20" fill="current"/>
</clipPath>
</defs>
</svg>
