<svg width="20" height="20" viewBox="0 0 20 20" fill="none" xmlns="http://www.w3.org/2000/svg">
<g clip-path="url(#clip0_55_113)">
<g clip-path="url(#clip1_55_113)">
<path d="M9.60547 0.109377C9.45312 0.187502 9.36328 0.269533 9.27734 0.410158C9.16406 0.593752 9.16016 0.613281 9.14453 1.16797L9.13281 1.73828L8.79297 1.80469C6.32031 2.28906 4.42969 4.41406 4.17969 6.98828C4.16016 7.19531 4.14062 8.03125 4.14062 8.84766C4.14062 10.4492 4.11719 10.7227 3.92578 11.3867C3.77734 11.9023 3.54687 12.3984 3.24609 12.8594C2.94531 13.3125 2.70312 13.5977 2.23828 14.0391C1.75391 14.4961 1.57812 14.9375 1.67969 15.4453C1.80469 16.0781 2.24609 16.5195 2.87109 16.6406C3.04297 16.6719 5.00781 16.6797 10.1367 16.6719L17.168 16.6602L17.3906 16.5703C17.707 16.4414 18.0156 16.1484 18.1719 15.8281C18.2891 15.5938 18.3008 15.5352 18.3008 15.2148C18.3008 14.6836 18.1992 14.4961 17.5352 13.8281C16.6523 12.9414 16.1875 12.0977 15.9336 10.9453C15.8555 10.6016 15.8477 10.3945 15.8203 8.65234C15.7891 6.57031 15.7773 6.45313 15.5273 5.67969C14.8906 3.73438 13.1914 2.21484 11.1758 1.80078L10.8398 1.73047L10.8203 1.16797C10.7969 0.535156 10.7539 0.390627 10.5195 0.199221C10.25 -0.0234356 9.92188 -0.0546856 9.60547 0.109377Z" fill="current"/>
<path d="M4.16016 0.683595C3.96094 0.753907 3.40234 1.32813 2.9375 1.94922C1.65234 3.65234 0.933594 5.64453 0.835937 7.75391C0.804687 8.39453 0.839844 8.56641 1.03906 8.78906C1.41406 9.20313 2.08203 9.13281 2.36719 8.65234C2.46094 8.48828 2.47266 8.42188 2.50391 7.85156C2.57031 6.56641 2.83594 5.50781 3.35938 4.43359C3.74609 3.63672 4.16016 3.02734 4.79297 2.32031C5.21484 1.85156 5.27734 1.73828 5.27734 1.47266C5.27734 1.21875 5.22266 1.07031 5.06641 0.902345C4.82422 0.648438 4.49219 0.566407 4.16016 0.683595Z" fill="current"/>
<path d="M15.2188 0.683597C14.9102 0.792972 14.6914 1.11328 14.6875 1.45703C14.6875 1.72657 14.7617 1.86719 15.082 2.21485C16.5977 3.84766 17.3594 5.66797 17.4844 7.96875C17.5117 8.4961 17.5586 8.64453 17.7617 8.83594C18.168 9.22266 18.8047 9.09766 19.0703 8.57422C19.1445 8.42969 19.1484 8.375 19.1289 7.75391C19.0586 5.88672 18.4766 4.07813 17.4375 2.51172C16.8945 1.69532 16.1367 0.83594 15.8398 0.699222C15.6562 0.613284 15.4297 0.609378 15.2188 0.683597Z" fill="current"/>
<path d="M6.97656 17.7031C7.07031 18.043 7.36328 18.5977 7.59375 18.875C7.98047 19.3398 8.61328 19.7422 9.21875 19.9063C9.60547 20.0117 10.3945 20.0039 10.793 19.8906C11.8438 19.5898 12.6523 18.8125 12.9648 17.7969C13.0078 17.6523 13.0469 17.5234 13.0469 17.5156C13.0469 17.5078 11.668 17.5 9.98438 17.5H6.91797L6.97656 17.7031Z" fill="current"/>
</g>
</g>
<defs>
<clipPath id="clip0_55_113">
<rect width="20" height="20" fill="current"/>
</clipPath>
<clipPath id="clip1_55_113">
<rect width="20" height="20" fill="current"/>
</clipPath>
</defs>
</svg>
